<?xml version="1.0" encoding="UTF-8"?>
<!DOCTYPE svg  PUBLIC '-//W3C//DTD SVG 1.1//EN'  'http://www.w3.org/Graphics/SVG/1.1/DTD/svg11.dtd'>
<svg enable-background="new 0 0 309 75" version="1.1" viewBox="0 0 309 75" xml:space="preserve" xmlns="http://www.w3.org/2000/svg">
		<path d="m117.02 30.565h-4.845l-0.577 1.336c-0.188 0.444-0.281 0.812-0.281 1.099 0 0.386 0.155 0.67 0.464 0.851 0.182 0.108 0.63 0.188 1.346 0.243v0.374h-4.562v-0.374c0.493-0.073 0.897-0.278 1.213-0.606 0.316-0.336 0.707-1.029 1.173-2.075l4.905-10.943h0.192l4.945 11.247c0.47 1.067 0.86 1.735 1.163 2.012 0.229 0.211 0.552 0.33 0.971 0.365v0.374h-6.634v-0.374h0.272c0.533 0 0.906-0.073 1.125-0.224 0.146-0.104 0.22-0.261 0.222-0.465 0-0.122-0.022-0.248-0.061-0.374-0.015-0.063-0.116-0.312-0.306-0.758l-0.725-1.708zm-0.343-0.749-2.044-4.723-2.102 4.723h4.146z" clip-rule="evenodd" fill-rule="evenodd"/>
  <path d="m131.54 25.013v7.402c0 0.724 0.067 1.173 0.202 1.357 0.134 0.175 0.409 0.284 0.819 0.333v0.363h-3.853v-1.266c-0.455 0.542-0.904 0.936-1.354 1.185-0.453 0.24-0.959 0.365-1.517 0.365-0.535 0-1.011-0.161-1.425-0.486-0.414-0.332-0.69-0.713-0.833-1.154-0.14-0.436-0.211-1.204-0.211-2.293v-3.754c0-0.714-0.068-1.158-0.201-1.334-0.13-0.176-0.402-0.291-0.819-0.345v-0.373h3.853v6.463c0 0.675 0.03 1.108 0.091 1.302 0.067 0.198 0.167 0.345 0.304 0.445 0.139 0.104 0.303 0.152 0.483 0.152 0.243 0 0.462-0.063 0.658-0.193 0.269-0.175 0.593-0.529 0.971-1.061v-5.057c0-0.714-0.067-1.158-0.202-1.334-0.128-0.176-0.403-0.291-0.819-0.345v-0.373h3.853v1e-3z"/>
  <path d="m139.17 24.749 0.155 3.227h-0.345c-0.412-0.958-0.84-1.612-1.286-1.962-0.436-0.348-0.877-0.523-1.315-0.525-0.275 0-0.512 0.094-0.708 0.282-0.194 0.182-0.293 0.394-0.293 0.637 0 0.182 0.068 0.356 0.202 0.525 0.219 0.276 0.821 0.752 1.812 1.428 0.991 0.667 1.641 1.237 1.953 1.706 0.316 0.468 0.474 0.989 0.474 1.57 0 0.524-0.13 1.042-0.394 1.545-0.263 0.508-0.635 0.894-1.114 1.166-0.479 0.266-1.006 0.404-1.588 0.404-0.45 0-1.055-0.145-1.809-0.426-0.202-0.074-0.342-0.111-0.415-0.111-0.222 0-0.409 0.17-0.556 0.506h-0.333l-0.164-3.4h0.345c0.304 0.891 0.716 1.56 1.245 2.005 0.53 0.445 1.035 0.664 1.506 0.664 0.323 0 0.588-0.096 0.789-0.292 0.208-0.2 0.313-0.445 0.313-0.729 0-0.322-0.1-0.602-0.302-0.839-0.204-0.234-0.655-0.593-1.357-1.07-1.03-0.716-1.698-1.263-2.001-1.637-0.444-0.555-0.669-1.166-0.669-1.834 0-0.726 0.252-1.383 0.75-1.97 0.508-0.596 1.234-0.891 2.186-0.891 0.511 0 1.009 0.128 1.486 0.373 0.182 0.104 0.332 0.155 0.447 0.155 0.12 0 0.219-0.024 0.292-0.073 0.074-0.053 0.193-0.198 0.354-0.435h0.34v1e-3z"/>
  <path d="m144.18 21.551v3.461h2.245v1.001h-2.245v5.836c0 0.544 0.024 0.898 0.071 1.061 0.054 0.155 0.145 0.286 0.272 0.386 0.127 0.094 0.245 0.14 0.354 0.14 0.438 0 0.853-0.333 1.245-1l0.303 0.222c-0.547 1.295-1.435 1.941-2.662 1.941-0.599 0-1.108-0.164-1.526-0.494-0.41-0.337-0.676-0.711-0.787-1.124-0.07-0.229-0.102-0.846-0.102-1.862v-5.106h-1.236v-0.356c0.85-0.598 1.573-1.227 2.164-1.891 0.601-0.659 1.124-1.396 1.567-2.216h0.337v1e-3z"/>
  <path d="m151.04 25.013v2.144c0.626-0.979 1.176-1.625 1.647-1.942 0.473-0.324 0.928-0.485 1.365-0.485 0.38 0 0.679 0.117 0.901 0.353 0.229 0.231 0.344 0.556 0.345 0.981 0 0.452-0.112 0.803-0.334 1.052-0.216 0.249-0.479 0.375-0.789 0.375-0.359 0-0.667-0.114-0.932-0.347-0.263-0.226-0.418-0.356-0.464-0.381-0.068-0.04-0.144-0.061-0.234-0.061-0.194 0-0.38 0.074-0.555 0.222-0.276 0.227-0.488 0.556-0.628 0.982-0.216 0.653-0.323 1.374-0.323 2.162v2.178l0.01 0.563c0 0.388 0.021 0.631 0.07 0.739 0.081 0.183 0.199 0.318 0.354 0.406 0.161 0.079 0.43 0.131 0.81 0.152v0.363h-5.108v-0.363c0.411-0.035 0.687-0.146 0.83-0.333 0.147-0.194 0.22-0.707 0.222-1.527v-5.23c0-0.538-0.027-0.883-0.081-1.032-0.068-0.188-0.167-0.325-0.293-0.413-0.129-0.087-0.354-0.149-0.678-0.184v-0.373h3.865v-1e-3z"/>
  <path d="m160.5 33.073c-1.153 1.019-2.191 1.526-3.106 1.526-0.542 0-0.989-0.176-1.345-0.526-0.36-0.357-0.536-0.802-0.536-1.336 0-0.72 0.309-1.368 0.93-1.94 0.622-0.578 1.973-1.35 4.058-2.306v-0.948c0-0.716-0.042-1.165-0.124-1.347-0.074-0.19-0.219-0.351-0.435-0.487-0.215-0.139-0.456-0.211-0.729-0.211-0.438 0-0.798 0.098-1.082 0.293-0.176 0.12-0.263 0.263-0.263 0.425 0 0.141 0.093 0.316 0.285 0.524 0.254 0.291 0.384 0.57 0.384 0.84 0 0.332-0.126 0.613-0.377 0.849-0.24 0.229-0.562 0.345-0.958 0.345-0.426 0-0.784-0.129-1.072-0.385-0.283-0.254-0.425-0.555-0.425-0.899 0-0.486 0.191-0.948 0.575-1.385 0.384-0.448 0.922-0.785 1.609-1.023 0.687-0.236 1.401-0.353 2.143-0.353 0.898 0 1.605 0.192 2.123 0.578 0.527 0.377 0.866 0.789 1.021 1.232 0.093 0.284 0.145 0.935 0.145 1.952v3.671c0 0.433 0.017 0.707 0.05 0.82 0.032 0.108 0.082 0.188 0.15 0.242 0.067 0.055 0.145 0.084 0.232 0.084 0.175 0 0.354-0.126 0.537-0.375l0.304 0.242c-0.338 0.5-0.69 0.863-1.052 1.093-0.36 0.222-0.768 0.333-1.225 0.333-0.541 0-0.961-0.125-1.264-0.372-0.303-0.259-0.488-0.645-0.553-1.156zm0-0.74v-3.165c-0.818 0.479-1.425 0.991-1.822 1.54-0.263 0.36-0.394 0.731-0.394 1.1 0 0.311 0.111 0.583 0.333 0.819 0.167 0.181 0.403 0.273 0.705 0.273 0.339 1e-3 0.73-0.187 1.178-0.567z" clip-rule="evenodd" fill-rule="evenodd"/>
  <path d="m168.72 20.753v11.754c0 0.666 0.075 1.094 0.232 1.281 0.153 0.184 0.456 0.287 0.908 0.316v0.363h-5.107v-0.363c0.419-0.014 0.729-0.136 0.93-0.365 0.136-0.156 0.202-0.566 0.202-1.232v-9.791c0-0.661-0.076-1.083-0.232-1.264-0.153-0.188-0.453-0.298-0.899-0.325v-0.375h3.966v1e-3z"/>
  <path d="m173.04 20.432c0.441 0 0.811 0.153 1.113 0.466 0.304 0.301 0.454 0.667 0.454 1.099s-0.155 0.801-0.465 1.105c-0.303 0.304-0.669 0.456-1.103 0.456-0.43 0-0.796-0.152-1.103-0.456-0.303-0.304-0.453-0.673-0.453-1.105s0.15-0.798 0.453-1.099c0.308-0.313 0.674-0.466 1.104-0.466zm1.417 4.581v7.495c0 0.666 0.076 1.094 0.23 1.281 0.158 0.184 0.461 0.287 0.912 0.316v0.363h-5.107v-0.363c0.416-0.014 0.729-0.136 0.932-0.365 0.133-0.156 0.201-0.566 0.201-1.232v-5.525c0-0.667-0.077-1.091-0.232-1.274-0.156-0.188-0.455-0.294-0.9-0.323v-0.373h3.964z" clip-rule="evenodd" fill-rule="evenodd"/>
  <path d="m181.12 33.073c-1.152 1.019-2.189 1.526-3.105 1.526-0.539 0-0.988-0.176-1.344-0.526-0.358-0.357-0.538-0.802-0.538-1.336 0-0.72 0.312-1.368 0.934-1.94 0.62-0.578 1.971-1.35 4.054-2.306v-0.948c0-0.716-0.042-1.165-0.12-1.347-0.075-0.19-0.221-0.351-0.437-0.487-0.215-0.139-0.458-0.211-0.729-0.211-0.438 0-0.798 0.098-1.08 0.293-0.177 0.12-0.265 0.263-0.265 0.425 0 0.141 0.095 0.316 0.284 0.524 0.256 0.291 0.382 0.57 0.382 0.84 0 0.332-0.123 0.613-0.371 0.849-0.243 0.229-0.565 0.345-0.962 0.345-0.427 0-0.783-0.129-1.071-0.385-0.284-0.254-0.425-0.555-0.425-0.899 0-0.486 0.19-0.948 0.575-1.385 0.383-0.448 0.921-0.785 1.607-1.023 0.688-0.236 1.404-0.353 2.145-0.353 0.898 0 1.604 0.192 2.125 0.578 0.524 0.377 0.866 0.789 1.02 1.232 0.095 0.284 0.142 0.935 0.144 1.952v3.671c0 0.433 0.017 0.707 0.05 0.82 0.033 0.108 0.085 0.188 0.151 0.242 0.067 0.055 0.145 0.084 0.233 0.084 0.175 0 0.353-0.126 0.533-0.375l0.307 0.242c-0.337 0.5-0.689 0.863-1.053 1.093-0.357 0.222-0.767 0.333-1.224 0.333-0.538 0-0.962-0.125-1.265-0.372-0.303-0.259-0.486-0.645-0.555-1.156zm0-0.74v-3.165c-0.815 0.479-1.425 0.991-1.821 1.54-0.262 0.36-0.392 0.731-0.392 1.1 0 0.311 0.11 0.583 0.332 0.819 0.168 0.181 0.403 0.273 0.705 0.273 0.341 1e-3 0.731-0.187 1.176-0.567z" clip-rule="evenodd" fill-rule="evenodd"/>
  <path d="m189.29 25.013v1.224c0.486-0.528 0.951-0.908 1.395-1.143 0.447-0.241 0.924-0.365 1.438-0.365 0.613 0 1.123 0.171 1.527 0.515 0.402 0.338 0.675 0.759 0.809 1.265 0.107 0.385 0.162 1.123 0.162 2.216v3.68c0 0.731 0.063 1.184 0.191 1.368 0.136 0.175 0.41 0.284 0.828 0.333v0.363h-4.781v-0.363c0.355-0.049 0.611-0.196 0.767-0.445 0.109-0.169 0.161-0.587 0.161-1.255v-4.209c0-0.774-0.03-1.26-0.089-1.463-0.063-0.205-0.167-0.358-0.314-0.467-0.142-0.113-0.299-0.169-0.474-0.169-0.581 0-1.12 0.413-1.62 1.241v5.068c0 0.708 0.063 1.156 0.194 1.348 0.132 0.188 0.38 0.304 0.735 0.353v0.363h-4.781v-0.363c0.398-0.043 0.681-0.17 0.848-0.385 0.116-0.147 0.172-0.585 0.172-1.316v-5.34c0-0.714-0.066-1.158-0.202-1.334-0.127-0.176-0.399-0.291-0.817-0.345v-0.373h3.851v-2e-3z"/>
  <path d="m214.27 20.442v4.833h-0.372c-0.452-1.321-1.131-2.325-2.03-3.014-0.908-0.688-1.895-1.03-2.967-1.03-1.024 0-1.877 0.291-2.559 0.87-0.682 0.573-1.162 1.375-1.445 2.405-0.282 1.033-0.424 2.091-0.424 3.177 0 1.316 0.155 2.467 0.462 3.458 0.312 0.991 0.813 1.72 1.499 2.187 0.696 0.462 1.515 0.696 2.467 0.696 0.331 0 0.67-0.032 1.012-0.099 0.35-0.076 0.707-0.179 1.073-0.316v-2.851c0-0.538-0.038-0.888-0.112-1.043-0.074-0.16-0.229-0.304-0.467-0.435-0.229-0.126-0.508-0.192-0.836-0.192h-0.357v-0.374h6.668v0.374c-0.505 0.034-0.862 0.104-1.063 0.213-0.197 0.101-0.35 0.273-0.456 0.516-0.063 0.129-0.093 0.44-0.093 0.941v2.851c-0.874 0.392-1.789 0.686-2.74 0.88-0.942 0.202-1.923 0.304-2.94 0.304-1.302 0-2.385-0.178-3.248-0.525-0.854-0.357-1.614-0.824-2.276-1.396-0.652-0.582-1.165-1.229-1.537-1.951-0.47-0.934-0.707-1.972-0.707-3.127 0-2.063 0.724-3.804 2.174-5.227 1.45-1.425 3.273-2.135 5.473-2.135 0.68 0 1.295 0.053 1.839 0.161 0.297 0.055 0.776 0.209 1.437 0.466 0.669 0.25 1.063 0.374 1.183 0.374 0.188 0 0.366-0.067 0.528-0.202 0.161-0.141 0.309-0.405 0.444-0.789h0.37z"/>
  <path d="m220.83 24.729c0.822 0 1.587 0.213 2.297 0.637 0.708 0.425 1.244 1.029 1.609 1.812 0.369 0.783 0.555 1.638 0.556 2.569 0 1.342-0.343 2.462-1.022 3.366-0.823 1.091-1.959 1.64-3.409 1.64-1.424 0-2.52-0.5-3.287-1.499-0.769-0.997-1.152-2.155-1.152-3.466 0-1.358 0.391-2.536 1.172-3.542 0.79-1.012 1.868-1.517 3.236-1.517zm0.041 0.717c-0.345 0-0.642 0.132-0.891 0.397-0.243 0.255-0.404 0.766-0.484 1.535-0.075 0.765-0.111 1.826-0.111 3.188 0 0.721 0.046 1.396 0.142 2.021 0.074 0.479 0.232 0.842 0.476 1.093 0.241 0.251 0.517 0.374 0.828 0.374 0.303 0 0.557-0.084 0.76-0.252 0.264-0.228 0.438-0.55 0.524-0.96 0.136-0.642 0.202-1.935 0.202-3.885 0-1.146-0.063-1.931-0.191-2.356-0.128-0.432-0.317-0.743-0.566-0.942-0.178-0.14-0.406-0.213-0.689-0.213z" clip-rule="evenodd" fill-rule="evenodd"/>
  <path d="m229.75 34.753-3.186-7.335c-0.384-0.882-0.685-1.442-0.901-1.677-0.155-0.175-0.383-0.294-0.688-0.355v-0.373h5.027v0.373c-0.318 0-0.533 0.059-0.648 0.172-0.161 0.149-0.242 0.326-0.242 0.526 0 0.249 0.147 0.717 0.445 1.407l1.559 3.549 1.243-3.064c0.356-0.877 0.534-1.498 0.534-1.862 0-0.207-0.075-0.377-0.229-0.504-0.151-0.132-0.417-0.208-0.803-0.224v-0.373h3.098v0.373c-0.299 0.042-0.54 0.152-0.73 0.333-0.188 0.182-0.471 0.72-0.848 1.608l-3.156 7.426h-0.475z"/>
  <path d="m242.4 29.402h-5.188c0.061 1.255 0.394 2.246 1 2.974 0.465 0.559 1.022 0.839 1.68 0.839 0.402 0 0.769-0.111 1.102-0.333 0.33-0.231 0.683-0.637 1.06-1.227l0.347 0.227c-0.516 1.044-1.079 1.784-1.699 2.224-0.62 0.432-1.34 0.647-2.155 0.647-1.404 0-2.467-0.541-3.186-1.617-0.581-0.871-0.869-1.95-0.869-3.24 0-1.577 0.425-2.831 1.273-3.762 0.855-0.936 1.858-1.404 3.005-1.404 0.957 0 1.784 0.395 2.487 1.183 0.71 0.783 1.09 1.944 1.143 3.489zm-2.488-0.677c0-1.086-0.061-1.831-0.184-2.234-0.114-0.407-0.297-0.713-0.546-0.921-0.142-0.124-0.331-0.184-0.565-0.184-0.353 0-0.639 0.172-0.86 0.515-0.396 0.602-0.598 1.425-0.598 2.471v0.353h2.753z" clip-rule="evenodd" fill-rule="evenodd"/>
  <path d="m246.89 25.013v2.144c0.628-0.979 1.177-1.625 1.647-1.942 0.475-0.324 0.927-0.485 1.365-0.485 0.38 0 0.679 0.117 0.901 0.353 0.23 0.231 0.343 0.556 0.345 0.981 0 0.452-0.112 0.803-0.335 1.052-0.216 0.249-0.479 0.375-0.787 0.375-0.358 0-0.67-0.114-0.932-0.347-0.263-0.226-0.418-0.356-0.463-0.381-0.072-0.04-0.149-0.061-0.236-0.061-0.194 0-0.38 0.074-0.555 0.222-0.277 0.227-0.484 0.556-0.629 0.982-0.214 0.653-0.322 1.374-0.322 2.162v2.178l9e-3 0.563c0 0.388 0.024 0.631 0.072 0.739 0.08 0.183 0.197 0.318 0.353 0.406 0.165 0.079 0.435 0.131 0.81 0.152v0.363h-5.106v-0.363c0.412-0.035 0.686-0.146 0.831-0.333 0.147-0.194 0.223-0.707 0.223-1.527v-5.23c0-0.538-0.027-0.883-0.083-1.032-0.068-0.188-0.164-0.325-0.293-0.413-0.128-0.087-0.354-0.149-0.678-0.184v-0.373h3.863v-1e-3z"/>
  <path d="m255.6 25.013v1.224c0.485-0.528 0.95-0.908 1.395-1.143 0.446-0.241 0.924-0.365 1.438-0.365 0.612 0 1.12 0.171 1.527 0.515 0.402 0.338 0.672 0.759 0.809 1.265 0.109 0.385 0.162 1.123 0.162 2.216v3.68c0 0.731 0.062 1.184 0.191 1.368 0.136 0.175 0.411 0.284 0.827 0.333v0.363h-4.779v-0.363c0.355-0.049 0.61-0.196 0.766-0.445 0.109-0.169 0.161-0.587 0.161-1.255v-4.209c0-0.774-0.03-1.26-0.09-1.463-0.061-0.205-0.166-0.358-0.313-0.467-0.144-0.113-0.3-0.169-0.475-0.169-0.582 0-1.12 0.413-1.619 1.241v5.068c0 0.708 0.063 1.156 0.193 1.348 0.131 0.188 0.38 0.304 0.735 0.353v0.363h-4.781v-0.363c0.397-0.043 0.682-0.17 0.849-0.385 0.115-0.147 0.172-0.585 0.172-1.316v-5.34c0-0.714-0.067-1.158-0.202-1.334-0.128-0.176-0.401-0.291-0.818-0.345v-0.373h3.852v-2e-3z"/>
  <path d="m266.56 25.013v1.244c0.519-0.568 0.999-0.964 1.437-1.184 0.445-0.228 0.93-0.344 1.454-0.344 0.609 0 1.117 0.141 1.527 0.425 0.412 0.284 0.729 0.717 0.952 1.296 0.541-0.606 1.055-1.046 1.549-1.316 0.498-0.269 1.018-0.404 1.558-0.404 0.651 0 1.172 0.152 1.556 0.455 0.39 0.299 0.66 0.679 0.809 1.142 0.157 0.459 0.231 1.196 0.234 2.207v3.873c0 0.731 0.063 1.179 0.193 1.355 0.132 0.175 0.41 0.292 0.826 0.345v0.363h-4.883v-0.363c0.383-0.035 0.666-0.181 0.847-0.445 0.124-0.183 0.186-0.601 0.186-1.255v-4.064c0-0.844-0.035-1.382-0.103-1.608-0.068-0.23-0.178-0.4-0.325-0.506-0.14-0.114-0.309-0.171-0.504-0.171-0.291 0-0.584 0.107-0.88 0.323-0.297 0.208-0.597 0.526-0.901 0.949v5.078c0 0.682 0.056 1.111 0.175 1.286 0.153 0.251 0.449 0.386 0.887 0.415v0.363h-4.895v-0.363c0.266-0.014 0.471-0.078 0.618-0.193 0.153-0.123 0.256-0.263 0.303-0.424 0.055-0.169 0.08-0.53 0.08-1.083v-4.064c0-0.857-0.033-1.395-0.1-1.608-0.067-0.217-0.183-0.386-0.346-0.506-0.151-0.121-0.322-0.181-0.506-0.181-0.269 0-0.514 0.068-0.735 0.211-0.319 0.209-0.655 0.566-1.013 1.07v5.078c0 0.668 0.064 1.111 0.191 1.325 0.136 0.211 0.411 0.333 0.83 0.375v0.363h-4.874v-0.363c0.396-0.043 0.68-0.17 0.85-0.385 0.112-0.147 0.169-0.585 0.17-1.316v-5.34c0-0.714-0.064-1.158-0.202-1.334-0.129-0.176-0.4-0.291-0.817-0.345v-0.373h3.852v-3e-3z"/>
  <path d="m287.08 29.402h-5.188c0.061 1.255 0.394 2.246 1.001 2.974 0.466 0.559 1.024 0.839 1.679 0.839 0.404 0 0.771-0.111 1.103-0.333 0.33-0.231 0.683-0.637 1.062-1.227l0.345 0.227c-0.516 1.044-1.081 1.784-1.697 2.224-0.622 0.432-1.343 0.647-2.157 0.647-1.404 0-2.463-0.541-3.186-1.617-0.58-0.871-0.871-1.95-0.871-3.24 0-1.577 0.428-2.831 1.277-3.762 0.855-0.936 1.855-1.404 3.003-1.404 0.954 0 1.787 0.395 2.488 1.183 0.705 0.783 1.087 1.944 1.141 3.489zm-2.488-0.677c0-1.086-0.061-1.831-0.182-2.234-0.116-0.407-0.298-0.713-0.548-0.921-0.14-0.124-0.329-0.184-0.565-0.184-0.35 0-0.638 0.172-0.86 0.515-0.396 0.602-0.596 1.425-0.596 2.471v0.353h2.751z" clip-rule="evenodd" fill-rule="evenodd"/>
  <path d="m291.29 25.013v1.224c0.486-0.528 0.949-0.908 1.395-1.143 0.445-0.241 0.923-0.365 1.435-0.365 0.614 0 1.124 0.171 1.529 0.515 0.404 0.338 0.673 0.759 0.809 1.265 0.109 0.385 0.161 1.123 0.161 2.216v3.68c0 0.731 0.065 1.184 0.193 1.368 0.135 0.175 0.41 0.284 0.831 0.333v0.363h-4.784v-0.363c0.355-0.049 0.612-0.196 0.766-0.445 0.108-0.169 0.163-0.587 0.166-1.255v-4.209c0-0.774-0.03-1.26-0.093-1.463-0.063-0.205-0.167-0.358-0.313-0.467-0.143-0.113-0.301-0.169-0.477-0.169-0.581 0-1.119 0.413-1.617 1.241v5.068c0 0.708 0.063 1.156 0.191 1.348 0.137 0.188 0.381 0.304 0.738 0.353v0.363h-4.784v-0.363c0.398-0.043 0.683-0.17 0.85-0.385 0.115-0.147 0.172-0.585 0.172-1.316v-5.34c0-0.714-0.065-1.158-0.202-1.334-0.128-0.176-0.401-0.291-0.819-0.345v-0.373h3.853v-2e-3z"/>
  <path d="m301.66 21.551v3.461h2.245v1.001h-2.245v5.836c0 0.544 0.024 0.898 0.071 1.061 0.054 0.155 0.145 0.286 0.272 0.386 0.128 0.094 0.245 0.14 0.353 0.14 0.439 0 0.854-0.333 1.246-1l0.303 0.222c-0.547 1.295-1.435 1.941-2.661 1.941-0.599 0-1.109-0.164-1.526-0.494-0.411-0.337-0.675-0.711-0.79-1.124-0.066-0.229-0.102-0.846-0.102-1.862v-5.106h-1.229v-0.356c0.847-0.598 1.569-1.227 2.161-1.891 0.602-0.659 1.123-1.396 1.569-2.216h0.333v1e-3z"/>
  <path d="m92.154 21.222c0.063 0.186 0.063 0.313 0 0.501-0.214 0.281-0.527 0.407-0.84 0.281-0.217-0.125-0.278-0.343-0.339-0.533 0.061-0.249 0.309-0.469 0.527-0.563 0.28 0 0.467 0.156 0.652 0.314z"/>
  <path d="m91.47 28.929c0 0.254-0.247 0.504-0.405 0.597-0.249 0.096-0.528 0.03-0.684-0.154-0.186-0.064-0.125-0.314-0.125-0.472 0.157-0.22 0.373-0.343 0.59-0.409 0.283 0.065 0.467 0.252 0.624 0.438z"/>
  <path d="m93.462 29.213c-0.094 0.28-0.312 0.532-0.592 0.563-0.185-0.032-0.528-0.093-0.467-0.375 0-0.219 0.125-0.437 0.283-0.502 0.309-0.156 0.682 0 0.776 0.314z"/>
  <path d="m92.186 30.28c-0.063 0.281-0.032 0.594-0.34 0.783-0.252 0.064-0.563 0.029-0.749-0.125-0.186-0.158-0.216-0.438-0.122-0.658 0.154-0.249 0.433-0.438 0.746-0.377 0.218 0.128 0.279 0.281 0.465 0.377z"/>
  <path d="m93.805 38.21c0.094 0.312-0.185 0.47-0.403 0.657-0.188 0.093-0.407 0-0.594-0.093-0.032-0.157-0.216-0.283-0.156-0.503 0.124-0.282 0.406-0.407 0.716-0.376 0.157 0.126 0.28 0.157 0.437 0.315z"/>
  <path d="m95.859 38.083c0.186 0.282 0.03 0.503-0.125 0.723-0.125 0.218-0.373 0.28-0.561 0.188-0.188-0.188-0.438-0.284-0.468-0.564 0-0.252 0.28-0.439 0.468-0.533 0.313-0.127 0.437 0.186 0.686 0.186z"/>
  <path d="m92.092 39.838c-0.092 0.252-0.28 0.376-0.529 0.503-0.249 0.061-0.403-0.158-0.588-0.251-0.158-0.124-0.094-0.408-0.033-0.565 0.311-0.532 1.15-0.28 1.15 0.313z"/>
  <path d="m94.457 39.966c-0.094 0.344-0.434 0.498-0.746 0.531-0.279-0.126-0.592-0.343-0.373-0.722 0.125-0.123 0.187-0.251 0.373-0.282 0.373-0.125 0.652 0.159 0.746 0.473z"/>
  <path d="m95.361 41.313c0.061 0.438-0.498 0.217-0.716 0.345-1.308 0.783-2.988 0.188-4.232-0.286 0.092-0.402 0.562-0.249 0.81-0.402 1.338-0.85 2.706 0.188 4.045 0.249l0.093 0.094z"/>
  <path d="m92.528 43.444c0.313-0.033 0.373-0.408 0.716-0.473 0.313-0.059 0.59 0.125 0.746 0.347 0.125 0.375-0.156 0.563-0.403 0.721-0.218 0.154-0.686-0.188-0.654 0.22 0.219 0.154 0.406 0.376 0.436 0.627-0.061 0.124-0.279 0.094-0.374 0.03-0.903-0.376-1.866-1.002-2.24-1.944-0.125-0.279-0.714-0.498-0.374-0.751 0.902-0.062 1.649 0.66 2.147 1.223z"/>
  <path d="m95.516 42.474c0.155 0.153 0.094 0.439-0.029 0.591-0.158 0.316-0.623 0.191-0.904 0.158-0.154-0.158-0.31-0.31-0.249-0.563 0.124-0.186 0.249-0.313 0.466-0.406 0.28-0.065 0.498 0.061 0.716 0.22z"/>
  <path d="m95.859 44.135c0.093 0.374-0.188 0.628-0.437 0.781-0.311 0.094-0.559-0.125-0.749-0.281-0.153-0.188-0.028-0.376 0-0.596 0.219-0.188 0.5-0.346 0.813-0.219 0.124 0.094 0.248 0.157 0.373 0.315z"/>
  <path d="m93.681 53.034c-0.279 0.407-0.156 1.004-0.437 1.442-0.622 0.719-1.152 1.535-2.147 1.691-0.155-0.314 0.217-0.627 0.374-0.908 0.435-0.941 1.058-2.007 2.055-2.415l0.155 0.19z"/>
  <path d="m3.871 53.692c0.03 0.158 0.124 0.281 0.091 0.438-0.091 0.158-0.246 0.347-0.434 0.377-0.343 0.063-0.558-0.126-0.716-0.407-0.032-0.279 0.064-0.533 0.311-0.658 0.278-0.127 0.593 0.032 0.748 0.25z"/>
  <path d="m96.666 54.507c-0.092 0.221-0.217 0.505-0.466 0.505-0.28-0.033-0.56-0.065-0.714-0.348-0.125-0.346 0.154-0.534 0.403-0.626 0.311 0 0.716 0.124 0.777 0.469z"/>
  <path d="m94.831 54.6c0 0.224-0.125 0.442-0.279 0.535-0.249 0.091-0.562 0.061-0.746-0.123-0.28-0.254-0.064-0.473 0.124-0.659 0.279-0.161 0.806-0.128 0.901 0.247z"/>
  <path d="m4.834 55.135c0.062 0.344-0.063 0.658-0.374 0.784-0.281 0-0.59-0.159-0.684-0.44-0.03-0.283 0.061-0.563 0.313-0.655 0.309-0.096 0.56 0.092 0.745 0.311z"/>
  <path d="m96.108 56.042c0.06 0.221-0.125 0.316-0.156 0.47-0.187 0.158-0.498 0.188-0.714 0.126-0.283-0.154-0.283-0.405-0.283-0.688 0.188-0.126 0.219-0.282 0.437-0.345 0.279-1e-3 0.622 0.124 0.716 0.437z"/>
  <path d="m94.178 56.14c0.125 0.372-0.219 0.561-0.467 0.656-0.125 0.027-0.309-0.065-0.343 0.123 0.81 0.409 1.306 1.067 1.93 1.663v0.251c-1.12-0.031-2.273-0.313-3.082-1.189-0.217-0.159-0.59-0.159-0.839-0.378 0.404-0.407 1.15-0.252 1.711-0.281 0.404-0.438-0.467-0.752 0.062-1.131 0.187-0.03 0.312-0.219 0.56-0.155 0.219 0.094 0.344 0.25 0.468 0.441z"/>
  <path d="m77.715 67.358c-0.188 0.158-0.434 0.25-0.403 0.563 0.186 0.251 0.433 0.314 0.684 0.345 0.156-0.156 0.435-0.28 0.435-0.563-0.124-0.25-0.404-0.411-0.716-0.345zm0.154-0.658c0.158-0.157 0.313-0.345 0.283-0.596-0.125-0.281-0.373-0.531-0.746-0.438-0.158 0.157-0.498 0.31-0.467 0.626 0.06 0.47 0.587 0.501 0.93 0.408zm2.43-10.626c-0.093 0.313 0.156 0.505 0.311 0.722 0.219 0.093 0.498 0.063 0.686-0.126 0.03-0.158 0.216-0.345 0.155-0.502-0.096-0.47-0.902-0.564-1.152-0.094zm-1.62 8.245-0.184 0.03c-0.125 1.254 0.776 2.163 1.677 2.979h0.126c0.156 0.061 0.186-0.128 0.186-0.22-0.029-1.285-0.964-2.07-1.805-2.789zm-2.615-0.377c-0.154 0.156-0.403 0.249-0.309 0.565 0.188 0.156 0.372 0.251 0.591 0.279 0.155-0.155 0.434-0.219 0.434-0.468-0.09-0.345-0.403-0.504-0.716-0.376zm5.698-5.799c0.092 0.032 0.25-0.03 0.31 0.063 0.313-0.094 0.528-0.345 0.562-0.689-0.094-0.377-0.562-0.407-0.84-0.377-0.219 0.033-0.283 0.282-0.438 0.439-1e-3 0.25 0.188 0.438 0.406 0.564zm7.562-5.705c-1.214 0.504-2.274 1.787-2.771 2.979 0.188 0.219 0.373-0.095 0.591-0.095 1.275-0.469 1.897-1.787 2.613-2.853-0.124-0.061-0.309-0.031-0.433-0.031zm-0.344 3.855c0.344-0.153 0.528-0.47 0.438-0.814-0.188-0.344-0.811-0.532-1.06-0.063-0.249 0.156-0.094 0.503 0.031 0.658 0.187 0.158 0.343 0.284 0.591 0.219zm0.905 1.065c-0.219 0.096-0.5 0.158-0.591 0.409-0.188 0.284 0.09 0.533 0.248 0.722 0.279 0.063 0.683 0.124 0.871-0.188 0.124-0.218 0.154-0.472 0.06-0.691-0.217-0.093-0.372-0.282-0.588-0.252zm-10.335-0.344c-0.124 0.252-0.278 0.503-0.031 0.754 0.155 0.127 0.374 0.345 0.653 0.249 0.249-0.122 0.562-0.373 0.531-0.721-0.248-0.345-0.779-0.658-1.153-0.282zm10.615-2.852c-0.25 0.095-0.468 0.282-0.532 0.565 0.158 0.344 0.532 0.656 0.965 0.468 0.126-0.091 0.407-0.279 0.377-0.531-0.189-0.311-0.408-0.534-0.81-0.502zm-0.841 5.644c-0.374-0.909-1.06-1.693-1.775-2.289-0.249-0.095-0.559-0.439-0.84-0.158 0.313 0.942 0.874 1.757 1.62 2.509 0.467 0.095 0.871 0.658 1.368 0.439 0.06-0.22-0.218-0.378-0.373-0.501zm-5.976 2.882c-0.062-0.814-0.373-1.598-0.809-2.226l-0.871-0.94c-0.313-0.094-0.532-0.659-0.841-0.375-0.033 0.123 0 0.249 0.125 0.312 0.527 1.408 0.84 2.82 2.238 3.825h0.125c0.19-0.158-0.061-0.377 0.033-0.596zm-4.293-0.409c-0.096 0.219-0.405 0.377-0.219 0.628 0.093 0.158 0.156 0.409 0.375 0.44 0.215 0.123 0.527 0.095 0.682-0.126 0.125-0.189 0.249-0.347 0.219-0.596-0.154-0.472-0.716-0.625-1.057-0.346zm0.993-1.628c-0.154 0.092-0.373 0.123-0.464 0.343 0 0.223 0 0.503 0.28 0.627 0.125 0.158 0.436 0.158 0.591 0 0.249-0.061 0.34-0.404 0.249-0.657-0.155-0.251-0.376-0.251-0.656-0.313zm0.811 1.661c-0.404 0.063-0.499 0.533-0.374 0.848 0.094 0.063 0.188 0.312 0.374 0.248 0.372 0.156 0.497-0.248 0.685-0.406 0.061-0.126-0.033-0.282-0.063-0.438-0.156-0.096-0.344-0.347-0.622-0.252zm-67.901-37.925c0.249-0.064 0.467-0.345 0.467-0.599-0.064-0.31-0.343-0.438-0.624-0.593-0.187 0.062-0.405 0.062-0.499 0.25-0.156 0.25-0.092 0.471 0 0.721 0.22 0.097 0.405 0.408 0.656 0.221zm6.626 3.384c0.281-0.124 0.5-0.344 0.467-0.72-0.062-0.283-0.373-0.314-0.624-0.376-0.247 0.125-0.558 0.376-0.432 0.72 0.155 0.252 0.34 0.284 0.589 0.376zm-1.741 0.94c-0.063 0.315 0.154 0.438 0.343 0.597 0.31 0.186 0.592-0.094 0.777-0.25 0.094-0.158 0-0.409-0.093-0.501-0.188-0.126-0.311-0.281-0.56-0.219-0.188 0.06-0.345 0.248-0.467 0.373zm-2.988-6.172c0.187-0.158 0.496-0.346 0.403-0.659-0.124-0.345-0.591-0.563-0.902-0.283-0.063 0.188-0.343 0.377-0.125 0.596 0.125 0.219 0.406 0.408 0.624 0.346zm2.551 5.328c0.188 0.251 0.531 0.093 0.75-0.096 0.091-0.218 0.061-0.531-0.124-0.72-0.251-0.25-0.625-0.063-0.843 0.157-0.157 0.252 0.03 0.471 0.217 0.659zm31.128-21.293-0.175 2.908 2.15-1.95 2.146 1.95-0.171-2.908 2.853-0.478-2.365-1.676 1.408-2.542-2.777 0.815-1.094-2.693-1.096 2.694-2.775-0.815 1.409 2.542-2.367 1.676 2.854 0.477zm-29.04 22.355c0.154 0.22 0.371 0.473 0.684 0.442 0.217-0.126 0.496-0.346 0.53-0.597-0.126-0.345-0.499-0.596-0.842-0.47-0.25 0.064-0.372 0.375-0.372 0.625zm26.552-16.578h9.23c0.425 0 0.768-0.345 0.768-0.775 0-0.427-0.343-0.776-0.768-0.776h-9.23c-0.424 0-0.767 0.35-0.767 0.776 0 0.429 0.343 0.775 0.767 0.775zm8.929-1.304h0.343c0.646 0 0.607 1.091 5e-3 1.091-0.486 0-1.251-1.091-0.348-1.091zm-3.782 0h0.903c0.485 0 1.34 1.091 0.436 1.091h-0.902c-0.484 0-1.338-1.091-0.437-1.091zm-3.779 0h0.901c0.484 0 1.338 1.091 0.436 1.091h-0.903c-0.481 0-1.335-1.091-0.434-1.091zm-34.362 11.523c0.215-0.098 0.34-0.346 0.34-0.597-0.125-0.22-0.34-0.533-0.685-0.409-0.249 0.126-0.435 0.409-0.28 0.721 0.127 0.187 0.374 0.377 0.625 0.285zm0.682 1.315c0.155 0.22 0.343 0.502 0.716 0.378 0.125-0.158 0.467-0.314 0.341-0.626-0.155-0.286-0.341-0.537-0.714-0.441-0.218 0.188-0.407 0.374-0.343 0.689zm0.125 2.756c0.154 0 0.25-0.186 0.218-0.313-0.562-0.469-0.81-0.94-1.276-1.474-0.405-0.531-0.995-0.657-1.524-1.066-0.219 0.036-0.622-0.248-0.716 0.096 0.746 1.099 1.775 2.663 3.298 2.757zm-2.707-4.572c-0.249 0.123-0.437 0.438-0.407 0.75 0.158 0.25 0.407 0.532 0.78 0.439 0.215-0.219 0.496-0.407 0.405-0.786-0.156-0.28-0.469-0.436-0.778-0.403zm0.309-0.693c0.25-0.123 0.345-0.408 0.405-0.688-0.092-0.249-0.311-0.313-0.529-0.407-0.218 0.03-0.464 0.062-0.592 0.283-0.091 0.219-0.061 0.501 0.128 0.659 0.121 0.153 0.404 0.153 0.588 0.153zm69.398 4.767c0.436-0.41 0.218-1.191 0.342-1.787-0.064-0.815-0.312-1.598-0.622-2.257-0.094-0.155-0.094-0.47-0.343-0.375-0.188 1.064-0.686 2.35-0.124 3.448 0.279 0.279 0.309 0.812 0.747 0.971zm-67.373-4.578c0.154-0.03 0.124 0.284 0.279 0.126-0.185-0.689-0.185-1.726 0-2.476-0.125-0.627-0.373-1.158-0.932-1.537-0.094-0.061-0.249-0.03-0.311 0.063 0.311 1.224-0.25 2.947 0.964 3.824zm61.055 42.063c-0.154 0.063-0.342 0.156-0.403 0.345-0.094 0.219-0.064 0.535 0.154 0.629 0.218 0.093 0.562 0.186 0.747-0.033 0.093-0.155 0.308-0.314 0.188-0.502-0.156-0.219-0.405-0.471-0.686-0.439zm14.035-41.186c-0.247 0.158-0.436 0.438-0.341 0.753 0.094 0.345 0.403 0.441 0.716 0.375 0.312-0.092 0.434-0.438 0.468-0.751-0.157-0.249-0.499-0.565-0.843-0.377zm1.181-0.25c0.283 0.094 0.499-0.156 0.656-0.313 0.03-0.188 0.216-0.503-0.032-0.625-0.186-0.096-0.341-0.222-0.59-0.158-0.312 0.094-0.437 0.406-0.437 0.719 0.064 0.221 0.248 0.221 0.403 0.377zm-3.266 8.807c0.405 0.252 0.872 0.378 1.246 0.691 0.653 0.594 1.772 0.5 2.52 0.126 0.032-0.064 0.093-0.251-0.032-0.284-0.995-0.03-1.711-0.878-2.612-1.003-0.407 0.095-0.966 0.062-1.122 0.47zm4.046-10.845c0.249-0.155 0.592-0.5 0.404-0.845-0.187-0.283-0.499-0.345-0.807-0.314-0.283 0.158-0.468 0.473-0.377 0.817 0.189 0.249 0.499 0.406 0.78 0.342zm-1.617 9.372c-0.218 0.158-0.375 0.347-0.344 0.598 0.062 0.248 0.344 0.438 0.624 0.376 0.185-0.188 0.467-0.409 0.434-0.723-0.155-0.251-0.435-0.283-0.714-0.251zm-4.699-2.412c0.372-0.158 0.622-0.438 0.527-0.909-0.155-0.157-0.249-0.313-0.437-0.377-0.123 0-0.279 0-0.37 0.094-0.282 0.096-0.466 0.375-0.436 0.689 0.154 0.25 0.372 0.533 0.716 0.503zm6.252-1.821c-1.089 1.194-2.083 2.291-2.736 3.636 0.341 0.22 0.715-0.123 1.059-0.25 1.212-0.658 1.866-2.038 1.928-3.386h-0.251zm-1.96 14.482c0.063 0.157 0.188 0.096 0.313 0.096 1.742-0.503 2.801-2.102 3.796-3.512-0.249-0.126-0.592 0-0.84 0.126-1.648 0.408-2.209 2.164-3.269 3.29zm-75.743-11.816c-0.56-0.499-1.089-1.066-1.681-1.473-0.652-0.158-1.213-0.469-1.898-0.408-0.217 0.094-0.623-0.03-0.654 0.314 1.089 0.313 1.806 1.221 2.865 1.599 0.465 0 0.964 0.25 1.368-0.032zm75.932-6.268c0.623-1.191 0.434-2.853-0.437-3.887-0.219-0.219-0.061-0.72-0.467-0.782-0.559 1.316-0.061 2.791 0.562 3.947 0.06 0.253-1e-3 0.692 0.342 0.722zm-4.297 5.922c-0.217 0.066-0.434 0.22-0.464 0.472 0 0.406 0.404 0.471 0.714 0.564 0.248-0.125 0.53-0.374 0.406-0.721-0.124-0.187-0.375-0.407-0.656-0.315zm1.308 0.692c0.094 0.313 0.404 0.438 0.746 0.374 0.095-0.123 0.188-0.155 0.313-0.25 0.249-0.155 0.03-0.409-0.064-0.563-0.155-0.125-0.312-0.283-0.528-0.219-0.248 0.155-0.529 0.312-0.467 0.658zm2.024-5.735c0.403-0.063 0.373-0.501 0.373-0.847-0.154-0.188-0.373-0.347-0.622-0.347-0.313 0.126-0.498 0.439-0.467 0.754 0.094 0.25 0.342 0.562 0.716 0.44zm1.836 2.193c0.06-0.407 0.684-0.814 0.716-1.222-0.964 0.248-1.869 0.783-2.521 1.63-0.343 0.562-0.903 1.126-0.84 1.754 0.279-0.032 0.528-0.25 0.716-0.408 0.839-0.28 1.586-0.908 1.929-1.754zm-3.922 1.63c0.281-1.004 0.25-2.1-0.157-3.008-0.309-0.188-0.467-0.597-0.497-0.942-0.094-0.188-0.219-0.373-0.434-0.218-0.252 0.533-0.375 1.126-0.375 1.784 0.217 0.912 0.839 1.694 1.275 2.538l0.188-0.154zm-64.48 35.635c-0.061-0.31-0.309-0.5-0.622-0.531-0.185 0.063-0.434 0.124-0.498 0.345-0.155 0.218 0.064 0.375 0.126 0.563 0.187 0.125 0.404 0.221 0.621 0.125 0.25-0.092 0.282-0.377 0.373-0.502zm0.407 2.291c0.248-0.19 0.373-0.505 0.311-0.849-0.156-0.375-0.53-0.438-0.84-0.405-0.375 0.188-0.405 0.594-0.375 0.907 0.124 0.408 0.561 0.408 0.904 0.347zm-9.772-5.172c-0.126 0.281-0.654 0.623-0.529 0.908 1.182-0.094 2.021-1.035 2.488-2.069 0.154-0.439 0.624-0.69 0.624-1.128h-0.187c-0.905 0.659-1.9 1.225-2.396 2.289zm9.429-2.726c0.094-0.188 0.466-0.253 0.343-0.598-0.188-0.188-0.313-0.502-0.656-0.407-0.185 0.063-0.249 0.188-0.403 0.313-0.094 0.282 0.094 0.469 0.249 0.658 0.094 0.125 0.342 0.096 0.467 0.034zm-1.027 1.347c0.092 0.249 0.341 0.315 0.56 0.375 0.313-0.06 0.498-0.248 0.591-0.533-0.062-0.344-0.405-0.47-0.716-0.47-0.218 0.156-0.466 0.314-0.435 0.628zm0.963 1.533c-1.647 0.158-3.483 1.068-4.044 2.759 0.313 0.188 0.467-0.154 0.716-0.248 1.308-0.314 2.272-1.601 3.328-2.26v-0.251zm-1.96-1.817c-0.215-0.188-0.311-0.471-0.684-0.345-0.157 0.156-0.436 0.345-0.372 0.628 0.124 0.219 0.309 0.407 0.59 0.375 0.251-0.125 0.496-0.313 0.466-0.658zm3.362 5.423c0.249-0.123 0.343-0.409 0.435-0.596-0.124-0.252-0.405-0.564-0.714-0.532-0.158 0.095-0.374 0.126-0.437 0.28-0.094 0.22 0 0.438 0.094 0.629 0.185 0.157 0.373 0.283 0.622 0.219zm-1.525 2.978v0.157c0.496 0.313 0.995-0.157 1.494-0.25 0.871-0.503 1.056-1.568 1.12-2.444-0.778 0.876-1.961 1.595-2.614 2.537zm5.569-0.784c-0.373-0.406-0.716-1.002-1.18-1.316-0.064-0.032-0.158-0.032-0.218 0.063 0.309 1.096 0.218 2.35 0.901 3.292 0.343 0.313 0.562 0.907 1.089 0.846-0.249-0.785 0-1.758-0.434-2.477 0.031-0.19-0.218-0.19-0.158-0.408zm50.382-3.164c0.407-0.125 0.935-0.376 1.123-0.815-0.094-0.127-0.313-0.093-0.407-0.03-1.089-0.285-2.148-0.063-3.174 0.155-0.154 0.156-0.467 0.063-0.497 0.314 0.935 0.251 1.9 0.751 2.955 0.376zm-0.995 4.167c-1.15 0.47-2.084 1.63-2.397 2.819-0.03 0.126-0.092 0.377 0.063 0.47 0.807-0.877 1.991-1.473 2.428-2.632-0.094-0.248 0.403-0.592-0.094-0.657zm-47.706-6.645c-0.03 0-0.062-0.03-0.03-0.063l-1.493-0.249c-0.967-0.127-1.836 0.312-2.742 0.594-0.123 0.029-0.185 0.188-0.153 0.283 1.432 0.843 3.174 0.315 4.418-0.565zm-4.078-1.034c-0.187-0.159-0.339-0.282-0.588-0.219-0.188 0.188-0.53 0.25-0.373 0.627 0.092 0.346 0.464 0.438 0.746 0.377 0.311-0.158 0.249-0.535 0.215-0.785zm-18.576-18.773c0.187 0.063 0.341-0.065 0.5-0.128 0.061-0.188 0.249-0.313 0.215-0.531-0.091-0.284-0.374-0.407-0.622-0.472-0.311 0.096-0.496 0.346-0.56 0.626 0.092 0.221 0.248 0.41 0.467 0.505zm7.529-10.376c-0.185 0.126-0.466 0.062-0.528 0.346-0.123 0.221 0 0.47 0.156 0.628 0.157 0.122 0.372 0.28 0.59 0.157 0.313-0.126 0.437-0.375 0.373-0.754-0.154-0.219-0.309-0.345-0.591-0.377zm-1.553 1.442c-0.033 0.156-0.127 0.471 0.092 0.596 0.187 0.094 0.405 0.188 0.624 0.063 0.091-0.126 0.371-0.188 0.249-0.439-0.127-0.377-0.687-0.754-0.965-0.22zm-5.571 11.158c1.369 0.439 2.861-0.03 4.013-0.719l0.124-0.224-0.092-0.093c-1.493-0.219-3.019 0-4.168 0.847l0.123 0.189zm5.288-3.855c-0.683-1.128-0.995-2.257-2.147-3.07-0.126 0-0.311 0-0.311 0.123-0.03 1.38 0.716 2.696 1.899 3.229 0.34-0.063 0.588 0.314 0.84 0.126 0.123-0.252-0.186-0.283-0.281-0.408zm1.338-0.251c0.935 0.939 2.273 1.378 3.581 0.91 0.155-0.063 0.465-0.063 0.373-0.343-1.059-0.787-2.552-0.535-3.828-0.849-0.126 0.031-0.126 0.156-0.126 0.282zm-0.808 19.496c0.032-0.47-0.59-0.656-0.933-0.377-0.031 0.158-0.188 0.284-0.155 0.502 0.094 0.253 0.309 0.345 0.558 0.377 0.311-0.033 0.437-0.221 0.53-0.502zm3.175-26.796c0.06-0.19 0.341-0.286 0.249-0.535-0.156-0.379-0.811-0.627-1.059-0.158-0.219 0.284 0.03 0.565 0.249 0.752 0.186 0.125 0.407 0.032 0.561-0.059zm-1.899 0.593c-0.185 0.251-0.061 0.596 0.218 0.783 0.155 0.064 0.404 0.125 0.528-0.061 0.064-0.188 0.249-0.283 0.188-0.534-0.188-0.345-0.591-0.533-0.934-0.188zm-3.456 8.996c0.067-0.157 0.252-0.251 0.158-0.472-0.091-0.25-0.282-0.47-0.592-0.439-0.218 0.127-0.437 0.283-0.403 0.598 0.03 0.221 0.281 0.281 0.403 0.438 0.186 0.061 0.279-0.125 0.434-0.125zm-1.429-1.788c0.125 0.189 0.219 0.314 0.403 0.408 0.313 0.063 0.592 0 0.778-0.282 0.032-0.126 0-0.346-0.063-0.47-0.154-0.158-0.342-0.221-0.591-0.249-0.248 0.092-0.497 0.28-0.527 0.593zm0.872-10.03c0.06 0.157 0.154 0.315 0.247 0.408 0.405 0.126 0.716-0.031 0.841-0.408-0.092-0.344-0.373-0.5-0.746-0.534-0.249 0.095-0.313 0.314-0.342 0.534zm-1.776 10.096c0.282-0.034 0.158-0.316 0.313-0.441-0.062-0.313-0.313-0.407-0.56-0.533-0.25 0.063-0.529 0.375-0.405 0.689 0.125 0.251 0.404 0.409 0.652 0.285zm3.301 0.53c-0.283 0.156-0.249 0.438-0.249 0.72 0.154 0.128 0.249 0.379 0.528 0.346 0.279-0.031 0.373-0.251 0.433-0.47 0-0.407-0.339-0.721-0.712-0.596zm-0.249 4.826c0.249-0.471 0.588-0.813 0.682-1.347 0.031-0.188 0.249-0.282 0.155-0.533l-0.091-0.063c-1.277 0.565-2.243 1.473-3.144 2.632l0.125 0.253c0.841-0.222 1.68-0.222 2.273-0.942zm-3.175-3.918c0.155 0.283 0.465 0.565 0.84 0.438 0.187-0.155 0.405-0.376 0.311-0.689-0.155-0.156-0.311-0.469-0.592-0.469-0.311 0.092-0.529 0.438-0.559 0.72zm30.262 2.637c0.326 0 0.588-0.232 0.588-0.515 0-0.289-0.262-0.52-0.588-0.52-0.323 0-0.585 0.23-0.585 0.52 0 0.283 0.262 0.515 0.585 0.515zm-17.751 10.433c0.061 0.189 0.185 0.44 0.403 0.471 0.155 0.03 0.436 0 0.562-0.154 0.185-0.158 0.215-0.439 0.155-0.657-0.188-0.285-0.467-0.254-0.716-0.254-0.25 0.157-0.404 0.312-0.404 0.594zm1.679-1.91c-0.092 0.126-0.281 0.094-0.373 0.281-0.094 0.188-0.032 0.408 0.187 0.534 0.155 0.157 0.403 0.093 0.591 0 0.063-0.159 0.217-0.254 0.125-0.408-0.094-0.221-0.313-0.314-0.53-0.407zm-9.368 3.103c-0.187 0.092-0.313 0.187-0.434 0.343-0.188 0.219 0.155 0.377 0.215 0.565 0.156 0.032 0.437 0.096 0.592-0.061 0.249-0.063 0.188-0.379 0.218-0.598-0.122-0.249-0.404-0.157-0.591-0.249zm3.238 0.72v-0.219c-1.182-0.847-2.118-2.102-3.671-2.102-0.188 0.066 0 0.188 0 0.284 0.716 0.313 1.213 0.94 1.647 1.566 0.561 0.441 1.274 0.629 2.024 0.471zm-10.614-1.377c-0.125 0.249-0.028 0.593 0.25 0.749 0.249 0.095 0.529 0.032 0.716-0.126 0.187-0.251 0.093-0.47 0-0.688-0.218-0.375-0.777-0.219-0.966 0.065zm32.281-12.976c0-0.273-0.222-0.497-0.496-0.497-0.272 0-0.494 0.224-0.494 0.497 0 0.279 0.222 0.498 0.494 0.498 0.274 0 0.496-0.218 0.496-0.498zm-1.294 0.818c-0.323 0-0.585 0.23-0.585 0.517s0.262 0.517 0.585 0.517 0.588-0.229 0.588-0.517c0-0.287-0.265-0.517-0.588-0.517zm-13.963 11.874c0.156 0.188 0.28 0.377 0.529 0.345 0.218-0.188 0.467-0.249 0.437-0.597-0.125-0.219-0.407-0.407-0.656-0.341-0.154 0.153-0.433 0.28-0.31 0.593zm6.754-2.757c0.279-0.096 0.436-0.252 0.467-0.535-0.063-0.217-0.311-0.437-0.593-0.468-0.217 0.156-0.53 0.314-0.404 0.688 0.094 0.189 0.311 0.315 0.53 0.315zm-8.871 0.281c-0.249 0.158-0.373 0.439-0.249 0.721 0.124 0.219 0.343 0.343 0.654 0.282 0.281-0.094 0.405-0.314 0.405-0.596-0.124-0.249-0.467-0.628-0.81-0.407zm60.404-0.533c-1.617-0.126-3.486-0.126-4.515 1.128l0.158 0.126 1.681 0.03c1.027 0 1.9-0.593 2.676-1.096v-0.188zm-0.468 3.197c0.344-0.158 0.623-0.409 0.499-0.848-0.125-0.438-0.717-0.438-0.964-0.188-0.096 0.158-0.312 0.284-0.219 0.534 0.156 0.251 0.342 0.47 0.684 0.502zm-6.878-2.632c0.218 0.126 0.406 0.281 0.686 0.219 0.31-0.123 0.403-0.439 0.467-0.723-0.218-0.562-1.029-0.562-1.244 0 0.031 0.158-0.064 0.376 0.091 0.504zm12.385 1.285c-1.679-0.377-3.389 0.251-4.511 1.474-0.062 0.063-0.032 0.155 0.063 0.219 0.155 0.032 0.28-0.063 0.403-0.096 1.557-0.061 3.082-0.342 4.169-1.315 0.064-0.158-0.124-0.19-0.124-0.282zm15.717-9.591c-0.497-0.908-1.338-1.285-2.333-1.285-0.81 0.061-1.402 0.596-1.745 1.285-0.185 0.689 0.064 1.316 0.591 1.724 0.219 0.095 0.5 0.064 0.624-0.156 0.157-0.41-0.28-0.41-0.343-0.722-0.125-0.438 0.032-0.814 0.343-1.098 0.311-0.314 0.839-0.155 1.212-0.155 0.375 0.25 0.75 0.47 0.935 0.906 0.188 0.535 0.188 1.131 0 1.663-0.344 0.782-1.12 1.41-1.93 1.568-2.583 0.375-30.933 0.25-30.933 0.25-3.328 0.313-7.125-0.629-9.988 1.128-1.308 0.628-1.96 2.07-2.303 3.354-0.84 0.751-1.742 1.628-2.427 2.476l-0.094-0.093c0.154-0.755 0.497-1.412 0.654-2.164 0.465-0.628 0.465-1.471 0.81-2.164 1.182-1.909 2.301-3.854 4.137-5.201 0.78-1.036 2.148-0.845 3.33-0.845 1.276 0.593 2.77 0.781 4.325 0.626 0.064-0.063 0.094-0.126 0.094-0.222-0.435-0.404-1.151-0.563-1.649-0.97-1.244-0.596-2.427 0.188-3.733 0.094-0.063-0.062-0.124-0.094-0.094-0.188 1.184-0.879 2.521-1.507 3.86-2.069 1.089-0.597 2.239-0.91 3.392-1.348 0.464 0 0.901-0.405 1.338-0.125-0.935 1.816-1.775 3.761-3.208 5.297-0.467 0-0.746 0.499-1.212 0.532-0.25 0.345-0.748 0.094-1.057 0.22-0.965 0.407-2.336 0.157-2.989 1.064 0.062 0.093 0.155 0.128 0.249 0.158 1.898 0.03 4.014 0.154 6.039 0.062 0.249-0.092 0.467-0.314 0.497-0.596-0.279-0.531 0.094-1 0.343-1.41 0.155-0.752 0.652-1.222 0.871-1.942 0.652-1.287 1.398-2.539 2.115-3.825 0.064 0.033 0.126 0.126 0.25 0.095 1.4-0.47 3.175-0.031 4.759-0.062l0.22 0.188c0.157 1.504-0.126 3.041-0.281 4.544-0.527 1.821-2.612 1.631-4.108 2.038-0.373 0.252-1.089 0.125-1.089 0.751 1.806 0.378 3.924 0.158 5.85 0.128 0.313-0.128 0.376-0.408 0.532-0.692 0.061-0.403 0.467-0.753 0.343-1.189-0.343-0.439-0.03-1.131-0.125-1.724 0.061-0.158 0.061-0.377 0-0.596 0.249-0.909 0.185-2.005 0.373-2.883 0.558 0.063 0.809 0.719 1.399 0.75 0.313-0.438-0.343-0.627-0.498-0.907 0.686-0.156 1.462 0.032 2.084 0.312l-0.309 0.346c-0.188 0.343 0.094 0.597 0.373 0.722 0.218 0.063 0.373-0.095 0.528-0.158 0.406-0.281-0.03-0.563 0.094-0.814 2.302 0.407 4.511 0.973 6.629 1.88 0.589 0.188 1.149 0.626 1.806 0.598-0.656-0.598-1.557-0.909-2.367-1.256-0.53-0.313-1.276-0.344-1.681-0.782 0.094-0.158 0.313-0.095 0.405-0.218 1.058-0.128 1.962-0.908 2.708-1.757 0.061-0.187 0.403-0.126 0.373-0.377-0.28-0.313-0.747 0.093-1.119 0.063-1.309 0.25-1.87 1.785-3.174 2.07-1.586-0.378-3.208-0.754-4.794-1.162-0.778-0.125-1.617-0.188-2.333-0.5 0-0.596 0.155-1.163 0.215-1.724 0.094-0.188 0.158-0.408 0.129-0.658 0.092-0.125 0.196-0.228 0.311-0.314l0.639-0.293c0.763-0.206 1.707-0.05 2.502 0.01 0.467 0.251 1.059 0.219 1.556 0.347 0.219-0.158 0.528-0.188 0.776-0.158 0.999-0.533 0.343-1.691 0.407-2.602 0.871-0.783 1.647-1.661 2.363-2.569 0.03-0.25-0.124-0.504-0.342-0.596-0.217-0.097-0.464-0.061-0.623 0.124-0.373 0.284 0 0.627 0 0.974-0.373 0.5-0.965 0.939-1.429 1.222-0.012-3e-3 -0.108 0.034-0.266 0.099l-0.076-0.193c-0.095-0.188-0.188-0.407-0.25-0.627-0.188-0.217-0.313-0.628-0.497-0.847-0.532-1.379-1.557-2.164-2.429-3.26-1.589-2.069-4.077-3.227-6.568-4.045-2.458-0.843-4.949 0.252-7.157 1.037-0.683-0.188-1.025-0.722-1.214-1.316-0.125-1.19 0.125-2.35 0.592-3.324 0.096-0.781 0.622-1.378 0.84-2.1 0.562-1.754 1.15-3.479 1.277-5.389 0.061-1.16-0.81-1.977-1.681-2.476-0.592-0.158-1.277-0.126-1.711 0.345-0.406 0.845-1.277 1.408-2.023 1.817-0.063 0.535 0.591 0.188 0.81 0.376 0.682 0.125 1.462-0.096 2.021 0.343 0.064 1.254-0.652 2.29-1.306 3.229-1.057 1.568-2.177 3.167-2.833 4.892l-0.023-0.024 1e-3 -1.629h-1e-3v-0.012h-14.758c-0.749-0.253-1.331-1.033-2.148-1.033-1.742-0.69-2.893 1.129-4.668 0.911-0.216 0.126-0.154 0.344-0.279 0.5-0.092 0.094-0.249 0.032-0.343-0.032-0.093-0.751-0.341-1.44-0.437-2.163-0.185-0.313-0.092-0.751-0.247-1.066-0.995-2.726 2.425-0.657 3.111-2.254 0.593-1.382-1.152-1.538-1.679-2.508v-0.408c-0.498-0.503-1.027-0.657-1.34-1.318 0.218-0.781 0.313-1.628 0.094-2.414-0.032-0.185-0.157-0.438-0.436-0.343-0.591 0.815-1.027 1.474-1.586 2.257-0.592-0.438-1.153-1.003-1.836-1.38-0.467-0.063-0.902-0.535-1.43-0.346-0.094 0.188 0 0.346 0.092 0.471 0.032 1.222 0.652 2.195 1.523 3.073l0.094 0.469c-0.56 1.286-0.404 2.76-0.56 4.139-1.4 3.572-3.671 7.02-6.752 9.497-1.773 2.004-3.89 3.948-4.17 6.706-0.092 0.44 0.064 0.971-0.281 1.286-1.027-0.375-2.052-0.877-2.893-1.535-1.432-1.004-3.487-0.877-4.419-2.698-0.375-0.719 0.094-1.44 0.436-1.973 1.057-1.003 0.903-2.789 0.343-4.009-0.125-0.033-0.156 0.123-0.249 0.155-0.094 1.848-1.557 3.135-0.996 5.17 0.125 0.596 0.434 0.973 0.588 1.534-0.215-0.06-0.527-0.06-0.714-0.154-0.684-0.096-1.37-0.377-2.086-0.284-1.431 0.659-3.391-0.153-4.542 1.161-0.188 0.032-0.436 0.063-0.373 0.344 0.682 0 1.338 0.188 2.024 0.158 1.086 0.188 1.804-0.72 2.552-1.128h0.185c0.313-0.315 0.84-0.126 1.246-0.188 1.959 0.22 3.484 1.158 5.105 2.131v0.123c-0.624 0.286-1.338 0.474-1.962 0.818-0.716 0.533-1.525 1.224-1.743 2.099-0.498 0.784 0.155 1.475 0.467 2.132 0.03 0.313 0.061 0.69 0.341 0.816 0.997-1.065 0.062-2.382 0.218-3.606 0.249-0.941 1.121-1.38 2.022-1.628 1.775-0.754 3.051 0.687 4.48 1.506-0.031 1.438 0.158 2.817-0.155 4.228-0.436 0.156-0.996 0.251-1.462 0.223-2.459 0.186-4.387 1.533-6.598 2.287-0.993 0.344-2.177 0.314-3.172 0.687 0.776 0.221 1.585-0.061 2.396-0.093 3.049-0.44 5.384-2.79 8.682-2.383l0.061 0.095c-0.372 0.784-0.87 1.443-1.461 2.038-0.094-0.344-0.125-0.628-0.437-0.816-0.249-0.125-0.528 0-0.713 0.252-0.094 0.156-0.094 0.345 0 0.469 0.155 0.283 0.404 0.346 0.683 0.438-0.061 0.281-0.403 0.409-0.592 0.66-0.871 1.473-2.644 0.877-3.671 1.91-0.157 0.222-0.716 0.347-0.467 0.691 1.183 0.125 2.334-0.19 3.206-0.817 1.151-1.283 2.365-2.505 3.517-3.729 0.185 1.003-0.093 2.04-0.685 2.853-0.281-0.156-0.497-0.375-0.84-0.471-0.311 0.063-0.528 0.378-0.56 0.628 0.123 0.219 0.249 0.468 0.465 0.631-1.056 0.747-2.396 0.812-3.609 1.156-2.271 0.281-4.479 0.47-6.786 0.501-1.086-0.065-2.333 0.313-3.359 0-1.183 0.22-2.459-0.157-3.426 0.5-0.123 0.158 0.03 0.312 0.03 0.47 1.436 0.942 3.396 0.188 5.013 0.473h12.261c0.904-0.031 1.805-0.065 2.521-0.473 1.586-0.908 2.458-2.539 3.268-4.135 0.311-0.567 0.528-1.221 0.652-1.884 0.311-1.061 1.276-1.815 2.335-1.91 0.154 1.63-0.156 3.262-0.529 4.767-0.187 1.001-0.84 1.973-0.436 3.039 0.092 0.5 0.622 0.5 1.027 0.564 3.766-0.064 7.531-0.219 11.515 0.063 0.714 0.124 1.338 0.343 2.115 0.313 0.064-0.096 0.281-0.125 0.187-0.313-0.092-0.347-0.341-0.785-0.746-0.877-0.063-0.189-0.342-0.127-0.436-0.253-1.991-1.128-4.387-0.533-6.722-0.501-1.214 0.126-2.427 0.346-3.455-0.344-0.465-0.565-0.124-2.352-0.124-2.352 0-0.378 0.488-1.959 0.976-3.413 0.941 0.26 3.289 1.689 3.289 1.689 1.087 0.407 2.084 1.067 3.111 1.66 4.231 2.353 7.033 6.239 8.929 10.565 0.033 0.342 0.345 0.719 0.126 1.065-0.654-1.005-1.587-1.569-2.365-2.383-0.217-1.473-1.089-2.885-2.366-3.481-0.466-0.688-1.461-0.75-2.239-0.969l-11.327-0.065c-9.211-0.126-17.613 0.284-26.764 0.126-1.274-0.126-2.831-0.565-3.204-1.912-0.249-0.471-0.249-1.285 0-1.725 0.343-0.594 0.965-0.782 1.585-0.844 0.499 0.062 0.84 0.531 1.061 0.881 0 0.402-0.343 0.78-0.499 1.126 0.032 0.124 0.156 0.374 0.375 0.278 0.403-0.154 0.714-0.593 0.809-1.002 0.028-0.219 0.123-0.53-0.094-0.688-0.187-0.658-0.871-1.126-1.462-1.284-0.778-0.067-1.589 0.158-2.117 0.721-0.746 0.626-0.716 1.755-0.498 2.632 0.498 1.379 1.96 2.317 3.362 2.508l30.279 0.124c2.955 0.155 6.285-0.345 9.272 0.251 1.089 0.347 2.24 1.158 2.521 2.382-0.032 0.063-0.124 0.032-0.218 0.032-2.459-1.598-5.695-2.193-8.838-1.816-1.244-0.063-2.365 0.407-3.485 0.719-0.592 0.128-1.151-0.158-1.526-0.5-1.12-1.005-3.079-0.942-4.51-0.565 0 0.096-0.032 0.188 0.032 0.222 1.523-0.126 2.426 1.19 3.795 1.347 0.312 0.064 0.56-0.282 0.839-0.031-1.43 0.688-2.799 1.507-4.325 1.941-0.467-0.094-0.716-0.531-1.089-0.782-0.592-0.659-1.68-0.377-2.488-0.44-0.28 0.063-0.529-0.125-0.716 0 0.247 0.503 0.809 0.788 1.338 1.035 0.777 0.345 1.68-0.031 2.397 0.44-0.188 0.22-0.437 0.281-0.656 0.438-1.462 0.563-2.676 1.879-4.293 1.785-1.711 0.188-3.456-0.313-4.607-1.504-0.498-1.225-1.774-1.881-3.142-1.815-0.094 0.061-0.218 0.061-0.188 0.219 0.686 0.405 1.213 1.22 1.899 1.689 0.436 0.534 1.276 0 1.679 0.597 0.593 0.408 1.34 0.755 2.026 0.878 0.496 0.219 1.055 0.313 1.617 0.438l-0.218 0.126c-2.831 0.941-6.101 1.034-9.272 0.909-0.935-0.032-1.837-0.312-2.77-0.281 0.154 0.187 0.464 0.344 0.746 0.438-0.249 0.157-0.531 0.221-0.84 0.251-0.373 0.096-0.809 0.126-1.183 0.316-0.498-0.033-0.935 0.153-1.338 0.312-0.529 0.563-1.151 1.158-1.773 1.443 0 0.122-0.032 0.312 0.125 0.312 0.591-0.252 1.34-0.063 1.93-0.312 1.027-0.099 1.619-1.225 2.429-1.696 0.869-0.687 2.114-0.531 3.173-0.375 0.622 0.156-0.064 0.409 0.123 0.814 0.25 0.221 0.467 0.472 0.812 0.376 0.061-0.063 0.121-0.125 0.215-0.155 0.188-0.249 0.158-0.533 0.03-0.784 0.437-0.281 1.029 0.032 1.494-0.155 1.184-0.031 2.365-0.284 3.519-0.314 0.185-0.032 0.403-0.221 0.59-0.032-0.092 0.251-0.405 0.281-0.279 0.626 0.061 0.285 0.375 0.411 0.62 0.472 0.313-0.123 0.591-0.345 0.469-0.751-0.062-0.221-0.311-0.252-0.469-0.347 0.655-0.313 1.402-0.405 2.056-0.72 0.466-0.095 0.902-0.253 1.306-0.439 0.405-0.032 0.748-0.409 1.12-0.251-0.155 0.532-0.372 1.033-0.654 1.505-0.496 1.661-0.87 3.855 0 5.454 0.094 0.03 0.126-0.03 0.19-0.063-0.656-1.661-0.283-3.573 0.279-5.139 0.434-2.666 3.174-3.45 5.135-4.453l0.093 0.125c-0.529 1.381-1.308 2.697-1.184 4.358 0.062 0.283-0.125 0.563 0 0.751 0.529-0.279 0.873-0.907 1.151-1.44 0.219-1.409-0.59-3.165 0.842-4.199 2.55-1.005 4.947-2.321 7.902-2.352 0.094 0.093 0.313-0.063 0.343 0.123-0.622 0.693-1.525 1.349-1.806 2.196-0.995 1.38-0.964 3.729-0.529 5.423 0.281 0.971-0.558 1.503-0.963 2.259-0.193 0.266-0.249 0.722-0.429 1.027l0.615 0.068c0.529-0.564 1.027-1.254 1.057-2.07 0.062 0.316 0.341 0.565 0.592 0.628 0.217-0.347-0.187-0.596-0.219-0.941 0.498-0.282 0.718 0.346 1.122 0.473 0.654 0.157 1.211 0.437 1.898 0.437l0.218-0.219c-0.688-1.065-2.052-1.254-3.238-1.316-0.62-1.036-0.62-2.319-0.56-3.573 0.125-0.659 0.249-1.347 0.622-1.945 0.156-0.436 0.592-0.845 0.873-1.189 0.56-0.53 1.276-0.909 1.959-1.064h0.093c0 0.06 0.032 0.095 0.032 0.095-0.841 0.658-0.934 1.565-1.431 2.378-0.53 0.788-0.78 1.85-0.281 2.729 0.187 0.409 0.094 1.035 0.528 1.316 0.403-0.563 0.438-1.284 0.654-1.911-0.094-1.035-0.714-2.006-0.125-3.009 0.313-0.784 0.965-1.096 1.681-1.379 1.711-0.159 3.206 0.72 4.698 1.379 0.314 0.221 0.84 0.407 0.903 0.845-0.031 0.85-0.498 1.695-1.152 2.101-0.84 0.502-2.054 0.563-2.832-0.032-0.466-0.469-0.652-1.284-0.498-1.91 0.343-0.377 0.811-0.689 1.37-0.503 0.311 0.156 0.592 0.47 0.997 0.282 0.155-0.094 0.216-0.343 0.123-0.5-0.341-0.188-0.466-0.659-0.933-0.723-0.591-0.093-1.308-0.063-1.711 0.345-0.654 0.566-0.904 1.412-0.716 2.196 0.217 1.004 0.965 1.723 1.928 2.006 1.432 0.344 2.926-0.094 3.828-1.316 0.375-0.408 0.469-0.848 0.686-1.35 1.493 0.91 2.614 2.508 3.206 4.137 0 0.532 0.156 1.098 0.032 1.569l1.086 0.094c-0.091-0.252 0-0.533 0.094-0.752 0.407-2.067 1.681-3.794 3.206-5.141 0.53-0.313 0.405 0.407 0.53 0.626 0.467 1.192 1.556 2.039 2.708 2.384 1.306 0.217 2.552-0.093 3.36-1.099 0.403-0.753 0.904-1.85 0.218-2.633-0.437-0.532-1.027-0.814-1.711-0.814-0.811 0-1.306 0.565-1.711 1.158 0 0.252-0.032 0.535 0.185 0.659 0.125 0 0.375 0.034 0.469-0.155 0.063-0.471 0.466-0.691 0.839-0.943 0.343-0.183 0.716 0 0.995 0.19 0.343 0.282 0.405 0.753 0.437 1.222-0.064 0.598-0.467 1.224-1.029 1.475-0.9 0.469-2.208 0.25-2.985-0.285-0.373-0.407-0.592-0.877-0.871-1.377-0.064-0.5-0.25-0.938 0-1.441 1.368-0.816 2.801-1.409 4.448-1.566 0.654 0.125 1.213 0.563 1.651 1.032 1.432 1.476-0.313 3.573 0.684 5.204 0.373-0.063 0.373-0.563 0.529-0.877 0.468-1.128-0.124-2.352-0.405-3.45-0.375-0.688-0.59-1.284-1.182-1.848 0.155-0.062 0.218-0.062 0.373-0.062 0.652 0.437 1.368 0.938 1.898 1.63 0.902 1.471 1.37 3.227 1.211 5.142-0.247 0.938-1.244 1.377-2.02 1.722-0.311 0.251-0.686 0.628-0.841 1.002 0.374 0.22 0.901 0 1.274-0.153 0.591-0.221 0.935-0.975 1.34-1.319 0.062 0.031 0.032 0.126 0.062 0.188 0.03 0.346-0.155 0.814 0.155 0.91 0.156-0.438 0.188-1.067 0.281-1.601 0.405 0.439 0.465 1.006 0.591 1.567 0.281 0.564 0.749 1.314 1.495 1.411 0.185-0.28-0.032-0.566-0.094-0.815-0.094-0.786-0.746-1.19-1.183-1.756-1.089-1.503-0.592-3.854-1.431-5.546-0.311-0.908-0.965-1.569-1.681-2.32l0.125-0.123c1.525-0.034 2.802 0.47 4.201 0.749 1.711 0.848 4.202 0.659 5.013 2.886 0.339 1.251 0.901 2.412 1.772 3.384l0.093-0.063c0.185-0.313 0.185-0.847 0-1.158-0.188-1.57-1.556-1.943-2.272-3.262l0.094-0.124c0.746 0.219 1.524 0.407 2.272 0.719 2.488 0.689 4.229 3.135 4.542 5.675 0 2.005-0.373 3.667-1.15 5.358-0.094 0.251-0.531 0.532-0.252 0.753 0.343-0.251 0.407-0.66 0.595-0.939 1.026-1.724 1.553-4.105 1.026-6.3-0.03-0.405-0.498-0.722-0.281-1.131 0.157 0.188 0.345 0.221 0.53 0.286 0.188-0.128 0.467-0.128 0.592-0.347 0.031-0.188 0.154-0.409 0-0.567-0.188-0.279-0.592-0.279-0.901-0.214-0.158 0.184-0.344 0.437-0.377 0.687-0.309-0.531-0.622-1.222-1.12-1.66l0.065-0.095c1.399 0.47 2.673 1.161 4.106 1.535 0.31 0.188 0.653 0.345 1.09 0.345 1.212 0.47 2.552 0.66 3.826 0.973 0.935-0.096 1.711 0.344 2.646 0.123v-0.061l-0.03 0.03c-0.344-0.438-1.09-0.03-1.497-0.342-2.146-0.222-4.199-0.787-6.128-1.535 0.03-0.096 0.154-0.065 0.249-0.065 0.309-0.156 0.528-0.439 0.498-0.784-0.155-0.219-0.403-0.342-0.716-0.342-0.188 0.091-0.438 0.31-0.468 0.532 0.031 0.247 0.25 0.533 0.468 0.594-0.061 0.065-0.188 0.032-0.28 0.032-0.965-0.439-1.9-0.849-2.833-1.286-0.343-0.063-0.623-0.347-0.965-0.407-0.712-0.344-1.432-0.69-2.148-0.97-1.99-1.038-4.199-1.601-6.314-2.354-0.467-0.125-0.904-0.251-1.341-0.374-0.777-0.22-1.553-0.409-2.333-0.628-2.644-0.658-6.193-0.719-8.496 0.722-0.373-0.124-0.592 0.468-0.777 0.095 0.652-1.724 2.552-2.291 4.263-2.354 12.479-0.124 24.18-0.219 36.474-0.405 1.432 0 2.83-0.502 3.576-1.786 0.529-0.765 0.62-2.05 0.217-2.895zm-25.113-5.956-0.064 1.034h-3.174c-0.03-0.063-0.125-0.095-0.094-0.186 1.124-0.283 2.088-0.942 3.207-1.227l0.125 0.379zm-3.238-1.537c0.249-0.251 0.373-0.53 0.562-0.847 0.03-0.313-0.125-0.439-0.313-0.658 0.218-0.217 0.561-0.157 0.84-0.217 0.78 0.468 1.589 1.222 1.745 2.068-1.247 0.532-2.491 1.127-3.799 1.41 0.219-0.532 0.592-1.19 0.965-1.756zm-11.02-7.414c0.992 1.65 2.232 3.532 4.082 4.156 0.995 0.813 2.241 1.784 3.579 1.065 0.714-0.219 0.779 0.784 1.121 1.191 0.374 1.16-0.467 1.976-0.531 3.04-0.125 0.377-0.434 0.596-0.777 0.72-0.498 0.095-0.904 0.408-1.432 0.408-4.044 1.566-8.247 3.229-11.451 6.426 0.187-0.376 0.281-0.847 0.31-1.316-0.061-0.471-0.029-1.002-0.34-1.38-0.071-0.164-0.275-0.626-0.23-0.825l3.897-2.475c0.992-0.457 1.708-1.933 1.708-3.622l0.064-7.388zm-21.13 3.422c0.059 0.076 0.144 0.106 0.254 0.012 0.808-0.532 0.562-1.725 0.562-2.537 0.187-0.973-0.5-1.444-0.78-2.289-0.011-8e-3 -0.023-0.023-0.035-0.034v-7.179h3.39c0.255 0.103 0.464 0.293 0.754 0.321l0.23-0.321h16.092v16.212c-0.113 1.257-0.54 2.299-1.409 2.891l-8.173 5.199h-0.047c-0.171 0.135-0.389 0.222-0.629 0.222-0.244 0-0.464-0.088-0.64-0.232l-8.161-5.188c-0.868-0.592-1.294-1.634-1.409-2.891v-4.186zm-1.829-7.73c0.184-0.72 0.372-1.378 1.056-1.786 0.101 0.073 0.145 0.143 0.155 0.222l0.01-7e-3 3e-3 3.431c-0.292-0.61-1.542-1.079-1.224-1.86zm5.973 20.657v0.062c-3.197-2.406-6.729-4.555-10.33-6.245 0.323-0.935 0.604-1.693 0.683-1.842 0.062-0.469 0.249-0.909 0.188-1.439 0.247-0.629 0.187-1.442 0.187-2.134 0.125-1.002 0.622-1.941 0.963-2.915 0.187-0.469 0.343-0.971 0.53-1.442 0.187-0.594 0.25-1.158 0.624-1.628 0.963 0.612 1.9 0.637 2.41 1.618l7e-3 7.005c0 1.688 0.716 3.165 1.705 3.622l3.375 2.144c0.046 1.082-0.65 2.044-0.342 3.194zm4.792 6.611c-1.029-2.192-2.365-3.948-3.981-5.734-0.067-0.284-0.345-0.531-0.189-0.846 0.592-0.564 0.716-1.661 0.405-2.382-0.062-0.158-0.249-0.347-0.215-0.505l-0.256-0.203 4.751 3.017c0.184 0.211 0.454 0.344 0.76 0.344 0.264 0 0.501-0.104 0.679-0.267l1.606-1.019c-1.174 1.753 0.736 4.31-0.759 5.966v0.123c-0.435 0.567-0.654 1.131-1.244 1.506-0.747-0.313-1.027-1.158-1.462-1.785-0.687-0.658-0.687-2.007-0.281-2.917 0.281-0.907-0.187-1.689-0.281-2.506l-0.312-0.183c-0.746 0.968-1.025 2.504-0.435 3.662 0.31 0.564 0.343 1.35 0.809 1.819 0.281 0.909 0.839 1.503 1.34 2.319 0.125 0.312-0.187 0.375-0.343 0.532-0.343-0.22-0.281-0.72-0.592-0.941zm2.085 3.511c-0.125 0.377-0.373 0.688-0.343 1.101l-0.124 0.06c0.094-0.472-0.372-0.753-0.249-1.251-0.249-0.379-0.249-0.849-0.465-1.257-0.279-0.502 0.247-0.721 0.465-1.067 0.437 0.188 0.591 0.599 0.903 0.973 0.187 0.533-0.218 0.941-0.187 1.441zm-0.189-3.008c1.059-1.346 1.899-2.851 2.212-4.576 0.219-0.157 0.061-0.564 0.279-0.752-0.061-0.502 0.279-1.003 0.032-1.41 0.197-0.686-0.91-1.314-0.202-1.756l-0.138 0.067 1.977-1.256c-0.275 0.696-0.513 1.92-0.236 2.63 0.094 0.563 0.56 1.223 0.125 1.725-1.495 1.817-2.335 4.013-3.33 6.081-0.374-0.065-0.561-0.409-0.719-0.753zm-12.849-17.897c-0.342 1.222-0.964 2.853-0.126 4.011 0.343 0.034 0.251-0.377 0.279-0.626 0.624-1.035 0.748-2.288 0.375-3.509-0.093-0.313-0.468-0.189-0.528 0.124zm-32.72 22.426c0 0.307 0.259 0.553 0.577 0.553 0.32 0 0.579-0.246 0.579-0.553 0-0.305-0.259-0.554-0.579-0.554-0.318 0-0.577 0.249-0.577 0.554zm0.852-1.175c0.249 0.25 0.498 0.566 0.935 0.377 0.373-0.064 0.311-0.504 0.249-0.754-0.217-0.25-0.499-0.28-0.81-0.25-0.217 0.123-0.374 0.344-0.374 0.627zm2.522-0.032c0.343 0.188 0.84 0.661 1.153 0.282-0.72-0.94-0.969-1.943-2.024-2.538-0.218-0.093-0.467-0.219-0.655-0.345-0.219 0.061-0.498-0.347-0.622 0.032 1.09 0.72 1.059 1.944 2.148 2.569zm25.214 5.197-0.259 0.264c0.111-0.058 0.192-0.152 0.259-0.264zm40.229-10.964c-1.493-0.438-3.111-0.093-4.231 0.849v0.187c1.151 0.032 2.301 0.032 3.266-0.47 0.28-0.285 0.965-0.192 0.965-0.566zm6.317-7.898c-0.219 0.063-0.312 0.251-0.498 0.409 0 0.188 0 0.374 0.157 0.47 0.186 0.187 0.466 0.219 0.684 0.123 0.125-0.153 0.468-0.312 0.343-0.628-0.125-0.219-0.403-0.374-0.686-0.374zm-1.585-0.722c-0.345 0.158-0.499 0.472-0.439 0.814 0.188 0.128 0.376 0.221 0.596 0.251 0.249-0.188 0.622-0.312 0.463-0.721-0.185-0.216-0.339-0.344-0.62-0.344zm-66.97 3.513c0.187 0.187 0.373 0.313 0.716 0.249 0.157-0.125 0.405-0.344 0.281-0.628-0.156-0.153-0.313-0.405-0.56-0.375-0.25 0.126-0.655 0.412-0.437 0.754zm69.395-0.877c-0.03 0.219 0.219 0.372 0.313 0.498 0.403 1.254 1.775 1.914 2.83 2.506 0.062 0 0.219 0.035 0.279-0.059-0.125-0.376-0.403-0.91-0.682-1.254-0.125-0.345-0.374-0.502-0.592-0.814-0.561-0.438-1.337-1.036-2.148-0.877zm4.7-1.317c-0.125-0.316-0.498-0.347-0.716-0.347-0.249 0.093-0.497 0.347-0.403 0.598 0.09 0.342 0.497 0.438 0.807 0.342 0.188-0.125 0.312-0.342 0.312-0.593zm-13.881-0.693c-0.155 0.033-0.309 0.128-0.403 0.251-0.094 0.158-0.03 0.347 0.03 0.473 0.218 0.063 0.467 0.313 0.686 0.093 0.219-0.123 0.281-0.252 0.249-0.5-0.095-0.253-0.344-0.253-0.562-0.317zm-2.145 0.128c-0.062 0.281 0.094 0.47 0.31 0.596 0.282 0.184 0.531-0.126 0.716-0.254 0.032-0.093 0.094-0.312-0.061-0.374-0.157-0.346-0.81-0.315-0.965 0.032zm0.716-1.536c-0.094 0.281 0.125 0.469 0.31 0.659 0.313 0.156 0.561-0.063 0.746-0.316 0-0.124 0.034-0.281-0.03-0.405-0.249-0.408-0.777-0.285-1.026 0.062zm15.464 4.041c0.219-0.155 0.53-0.216 0.468-0.593-0.094-0.251-0.374-0.47-0.686-0.409-0.185 0.158-0.498 0.283-0.404 0.628 0.126 0.218 0.344 0.374 0.622 0.374zm-12.728-2.883c0.313-0.124 0.407-0.438 0.343-0.751-0.155-0.218-0.343-0.346-0.622-0.346-0.374 0.063-0.404 0.407-0.562 0.658 0.159 0.251 0.469 0.566 0.841 0.439zm8.934 1.224c0.218-0.067 0.527-0.188 0.467-0.505-0.218-0.247-0.497-0.563-0.935-0.374-0.06 0.155-0.249 0.281-0.249 0.469 0.155 0.252 0.343 0.534 0.717 0.41zm-67.157 0.468c0.311-0.126 0.25-0.377 0.375-0.626-0.188-0.281-0.467-0.565-0.841-0.377-0.156 0.158-0.405 0.254-0.311 0.598 0.093 0.249 0.466 0.533 0.777 0.405zm71.667 1.569c-0.186 0.157-0.029 0.407 0.031 0.564 0.219 0.22 0.468 0.126 0.716 0.096 0.094-0.126 0.343-0.253 0.313-0.441-0.218-0.313-0.716-0.658-1.06-0.219zm-74.28-1.441c0.188 0.061 0.467 0.094 0.622-0.095 0.063-0.159 0.249-0.282 0.158-0.501-0.063-0.316-0.343-0.439-0.624-0.505-0.219 0.095-0.311 0.188-0.499 0.347-0.091 0.345 0.127 0.566 0.343 0.754zm7.219-0.626c0.032-0.19 0.25-0.409 0.062-0.598-0.187-0.158-0.341-0.282-0.624-0.313-0.247 0-0.247 0.218-0.432 0.283-0.064 0.248-0.096 0.658 0.215 0.781 0.284 0.189 0.623 0.036 0.779-0.153zm-5.912 0.813c-0.313 0.095-0.437 0.438-0.313 0.721 0.188 0.221 0.405 0.314 0.686 0.314 0.187-0.159 0.438-0.247 0.467-0.597-0.062-0.032-0.126-0.093-0.094-0.155-0.092-0.283-0.467-0.315-0.746-0.283zm74.282-0.062c-0.061-0.253-0.281-0.472-0.562-0.502-0.125 0.063-0.343 0.063-0.403 0.156-0.188 0.155-0.219 0.407-0.125 0.596 0.125 0.157 0.343 0.346 0.592 0.313 0.249-0.063 0.468-0.282 0.498-0.563zm-70.204-7.086c0.931 0.158 2.022 0.032 2.767-0.529 0.343-0.252 0.873-0.348 1.059-0.725-0.061-0.153-0.218-0.094-0.28-0.219-1.493-0.314-2.739 0.347-3.546 1.473zm-1.65-2.945c0.249-0.158 0.434-0.406 0.311-0.688-0.218-0.348-0.778-0.596-1.057-0.126-0.283 0.252 0 0.503 0.154 0.72 0.185 0.031 0.373 0.22 0.592 0.094zm2.706 1.101c0.188-0.158 0.437-0.347 0.343-0.66-0.126-0.22-0.373-0.315-0.591-0.315-0.185 0.155-0.404 0.315-0.312 0.628 0.126 0.155 0.281 0.468 0.56 0.347zm47.03 4.364c0.325 0 0.585-0.23 0.585-0.516s-0.26-0.515-0.585-0.515c-0.324 0-0.588 0.229-0.588 0.515s0.264 0.516 0.588 0.516zm-20.858 2.275c0 0.17 0.126 0.309 0.279 0.309 0.155 0 0.279-0.139 0.279-0.309 0-0.086-0.276-0.55-0.276-0.55s-0.282 0.541-0.282 0.55zm17.136-1.914c0.325 0 0.587-0.231 0.587-0.52 0-0.284-0.262-0.518-0.587-0.518-0.324 0-0.586 0.234-0.586 0.518 0 0.289 0.262 0.52 0.586 0.52zm0.763 0.533c0 0.287 0.262 0.518 0.586 0.518 0.323 0 0.585-0.23 0.585-0.518 0-0.283-0.262-0.518-0.585-0.518-0.324 1e-3 -0.586 0.235-0.586 0.518zm-3.516-18.632c0.151 0 0.277-0.139 0.277-0.305 0-0.012-0.282-0.552-0.282-0.552s-0.276 0.464-0.276 0.552c0 0.166 0.126 0.305 0.281 0.305zm-9.532 22.81c0 0.168 0.125 0.306 0.279 0.306 0.151 0 0.276-0.138 0.276-0.306 0-0.011-0.283-0.551-0.283-0.551s-0.272 0.463-0.272 0.551zm4.795-2.797c0 0.17 0.126 0.309 0.281 0.309 0.153 0 0.279-0.139 0.279-0.309 0-9e-3 -0.284-0.55-0.284-0.55s-0.276 0.464-0.276 0.55zm4.697-13.868c0 0.171 0.124 0.304 0.279 0.304 0.151 0 0.277-0.133 0.277-0.304 0-0.011-0.282-0.552-0.282-0.552s-0.274 0.466-0.274 0.552zm5.728 10.391c0.403-0.878 0.373-2.037-0.062-2.917-0.125-0.246-0.093-0.813-0.53-0.719-0.03 0.594-0.217 1.097-0.373 1.661 0.094 0.784 0.373 1.503 0.716 2.223l0.249-0.248zm-5.728-4.123c0 0.17 0.124 0.307 0.279 0.307 0.151 0 0.277-0.137 0.277-0.307 0-6e-3 -0.282-0.547-0.282-0.547s-0.274 0.462-0.274 0.547zm-0.754 4.963c0 0.17 0.125 0.306 0.279 0.306s0.279-0.136 0.279-0.306c0-9e-3 -0.282-0.549-0.282-0.549s-0.276 0.463-0.276 0.549zm4.925-0.591c0.249-0.092 0.313-0.407 0.281-0.72-0.156-0.28-0.592-0.407-0.839-0.157-0.063 0.157-0.25 0.283-0.158 0.503 0.095 0.282 0.374 0.47 0.716 0.374zm-2.622 26.349-0.18-0.035c-0.395 0.54-0.823 0.912-1.767 0.737-0.417-0.074-0.548-0.145-0.502-0.398l0.449-2.471c0.084-0.462 0.277-0.431 0.718-0.366l0.023-0.13-2.179-0.401-0.023 0.131c0.277 0.065 0.529 0.125 0.469 0.47l-0.46 2.537c-0.058 0.32-0.248 0.301-0.605 0.274l-0.023 0.131 3.611 0.663 0.469-1.142zm-10.553-0.322c-0.42-0.058-0.56-0.076-0.551-0.502l0.02-1.044 0.173 3e-3 1.279 1.693 1.186 0.021v3e-3l1.279 0.159 0.015-0.133c-0.213-0.037-0.512-0.09-0.489-0.291 0.012-0.085 0.137-0.289 0.361-0.647l1.417 0.178c0.067 0.181 0.22 0.596 0.203 0.74-0.022 0.174-0.136 0.163-0.529 0.142l-0.017 0.132 2.039 0.254 0.019-0.129c-0.304-0.029-0.383-0.221-0.597-0.822l-1.061-2.954-0.175-0.021-1.756 2.72c-0.228 0.354-0.344 0.517-0.65 0.533-0.063-6e-3 -0.132-0.023-0.197-0.096l-1.247-1.547c0.345-0.082 1-0.237 1.014-0.891 0.017-0.895-1.325-0.967-1.769-0.973l-2.044-0.038-3e-3 0.13c0.363 0.029 0.558 0.045 0.548 0.504l-0.045 2.354c-8e-3 0.432-0.136 0.445-0.568 0.478l-2e-3 0.132 2.144 0.043 3e-3 -0.131zm4.145-2.142 0.478 1.365-1.229-0.152 0.751-1.213zm-4.646-0.931c0.036-0.165 0.05-0.224 0.4-0.217 0.507 9e-3 0.759 0.244 0.751 0.781-0.013 0.692-0.348 0.804-1.177 0.792l0.026-1.356zm-5.656 1.007c0.047-0.862 0.694-0.952 1.135-1.014l0.265 2.795c0.042 0.446-0.107 0.468-0.565 0.545l0.01 0.133 2.256-0.218-0.012-0.132c-0.469 0.021-0.622 0.022-0.666-0.428l-0.264-2.796c0.437-0.021 1.089-0.055 1.297 0.781l0.182-0.021-0.111-1.062-3.794 0.362 0.082 1.069 0.185-0.014zm16.461 3.609 2.172 0.459 0.027-0.131c-0.336-0.095-0.582-0.161-0.513-0.497l0.521-2.522c0.074-0.354 0.373-0.299 0.667-0.247l0.027-0.13-2.173-0.455-0.028 0.129c0.284 0.076 0.573 0.148 0.502 0.491l-0.522 2.521c-0.067 0.327-0.313 0.296-0.652 0.251l-0.028 0.131zm-18.735-2.073 0.452 0.074c0.437 0.071 0.758 0.13 0.832 0.478 0.017 0.066 0.101 0.591-0.646 0.757-0.787 0.175-1.276-0.331-1.516-0.83l-0.178 0.041 0.283 1.284 0.18-0.041c5e-3 -0.088 0.015-0.187 0.146-0.217 0.191-0.043 0.511 0.069 1.099-0.06 1.14-0.254 1.399-0.973 1.298-1.429-0.125-0.568-0.662-0.765-0.893-0.806l-0.993-0.176c-0.568-0.104-0.713-0.19-0.775-0.47-0.072-0.338 0.234-0.571 0.557-0.643 0.729-0.166 1.234 0.351 1.424 0.688l0.176-0.036-0.249-1.128-0.188 0.04c-8e-3 0.106-0.021 0.188-0.165 0.224-0.18 0.037-0.507-0.065-1.005 0.044-1.177 0.263-1.213 1.014-1.143 1.329 0.051 0.241 0.15 0.688 1.304 0.877zm-9.559 3.292 0.017 0.132 1.281-0.147-0.017-0.131c-0.215 0.014-0.521 0.032-0.541-0.168-0.01-0.086 0.064-0.314 0.198-0.715l1.419-0.164c0.107 0.158 0.354 0.526 0.37 0.669 0.022 0.175-0.092 0.192-0.48 0.263l0.015 0.134 2.045-0.237-0.015-0.131c-0.302 0.043-0.423-0.124-0.775-0.657l-1.725-2.617-0.175 0.018-1.067 3.065c-0.146 0.415-0.212 0.604-0.55 0.686zm1.455-2.601 0.785 1.21-1.23 0.143 0.445-1.353zm3.542-24.996c-0.219 0.063-0.311 0.378-0.219 0.597 0.125 0.188 0.374 0.313 0.652 0.251 0.188-0.123 0.436-0.314 0.373-0.597-0.092-0.281-0.528-0.313-0.806-0.251zm-1.465 21.815c-0.56-0.096-1.025 0.314-1.555 0.158l-1.025 0.236c-0.098 0.019-0.21 0.014-0.343-0.018-0.498-1.284 0.993-2.07 0.528-3.324-0.404-0.721-1.214-1.412-2.148-1.284-1.056-0.128-1.99 0.472-2.489 1.284-0.715 1.565 0.187 3.197 0.467 4.734-0.064 0.502 0.497 1.063 0 1.473-0.997-0.69-2.303-1.065-3.515-0.722-0.375 0.188-1.059-0.06-1.244 0.378 1.338 0.721 3.048 0.626 4.54 0.563 0.187-0.061 0.312-0.094 0.468 0.033 0.125 0.813-0.156 1.909 0.343 2.633 0.56 0.751 1.495 0.939 2.396 1.035 2.864-0.096 5.414-0.942 8.028-1.601 0.406-0.03 0.716-0.251 1.153-0.251 1.4-0.312 2.925-0.563 4.417-0.596-0.652 0.847-1.025 1.789-1.308 2.82-0.373 0.847 0.656 0.972 0.966 1.442-0.966 0.281-1.65 0.939-2.551 1.316-1.992-0.061-3.673 0.69-5.542 0.907-0.028 0.409 0.656 0.283 0.718 0.688-0.094 0.286-0.373 0.316-0.591 0.475-0.029 0.187 0 0.219 0.187 0.249 0.188-0.219 0.591-0.063 0.78-0.284 0.622 0 1.15-0.186 1.742-0.216 0.529-0.224 1.12-0.251 1.587-0.629 0.654-0.186 1.059-0.625 1.713-0.813 0.933 0 1.773-0.314 2.644-0.377v0.188c-0.716 1.16-1.462 2.352-2.21 3.447-0.125 0.22 0.032 0.439 0.218 0.503 0.436 0.124 0.871 0 1.212-0.188 0.656-1.13 1.248-2.195 1.777-3.355 0.217-1.065 0.994-1.631 1.773-2.35 0.125-0.063 0.311-0.252 0.434-0.063-0.622 0.721-1.025 1.409-1.491 2.193-0.25 0.879-0.314 2.006 0.466 2.726 0.373 0.314 0.933 0.22 1.432 0.252 1.212-0.626 2.769 0.375 3.703-0.814 0.558-0.096 0.651 0.563 0.963 0.877 0.528 0.158 1.089 0.689 1.619 0.313-0.032-0.345-0.405-0.659-0.59-0.971-0.375-0.658-0.84-1.19-1.184-1.786-0.158-0.439-0.437-0.721-0.499-1.161 0.56 0.188 1.059 0.565 1.683 0.658 0.528 0.221 1.18 0.188 1.677 0.503 0.407 0.532 1.029 0.847 1.557 1.19 0.776 0.377 1.65 0.44 2.459 0.754 0.311 0.031 0.778 0.279 0.997 0-0.126-0.158-0.283-0.253-0.467-0.347-0.095-0.407 0.56-0.188 0.778-0.5-0.076-0.153-0.213-0.219-0.361-0.24-0.447-0.237-1.555-0.322-1.849-0.481-0.374-0.063-0.716-0.221-1.089-0.344-1.866 0-2.895-1.695-4.388-2.321 0.343-0.312 0.871-0.565 1.09-1.034 0.279-0.438 0.373-1.16 0.094-1.66-0.281-0.973-1.526-0.848-2.241-1.38l0.094-0.093c1.212-0.063 2.271 0.219 3.36 0.437 2.985 0.407 5.755 1.536 8.868 1.601 1.711 0 3.86 0.092 4.699-1.569 0.156-0.971 0.341-1.942 0.499-2.915 0.374-1.565 1.399-3.008 1.244-4.732-0.373-0.971-1.153-1.629-2.118-1.942-0.995-0.219-2.054-0.065-2.707 0.688-1.119 0.909-0.343 2.414-0.312 3.637 0 0.25 0.033 0.438-0.216 0.565-4.513-0.408-8.713-1.534-13.195-2.009-1.03-0.177-2.061-0.129-3.041-0.338l-1.252-0.13c-3.892 0.127-7.783 0.345-11.424 1.284-0.777 0.252-1.65 0.314-2.428 0.598zm3.082 11.944-0.436-0.408c0.217-0.283 0.684-0.126 1.025-0.316 0.81-0.249 1.745-0.563 2.646-0.374-0.933 0.752-2.146 0.845-3.235 1.098zm19.428-0.501c0.743 0.336 2.239 0.664 3.318 0.786-0.098 0.425-0.856 0.025-0.769 0.623-0.964-0.374-2.083-0.563-2.798-1.316 0.06-0.03 0.124-0.123 0.249-0.093zm-29.198-13.322c0.09-0.564 0.215-1.158 0.747-1.569 0.746-0.405 1.773-0.311 2.458 0.095 0.217 0.128 0.375 0.316 0.499 0.596 0.155 0.533-0.096 1.098-0.469 1.412h-0.309c0-0.505 0-1.005 0.185-1.412-0.03-0.377-0.341-0.405-0.59-0.563-0.529-0.157-0.997 0.096-1.401 0.313-0.312 0.376-0.59 0.847-0.404 1.379 0.217 0.347 0.032 0.816 0.156 1.193l-0.094 0.123c-0.375-0.406-0.875-0.846-0.778-1.567zm1.462 0.894c0.464 0.345 1.118 0.188 1.681 0.283 0.091 0.343 0.091 0.781-0.158 1.065-0.53-0.125-1.213-0.063-1.493-0.562 0.063-0.221-0.094-0.533-0.03-0.786zm-0.094-1.053c0.094-0.251 0-0.625 0.343-0.69 0.215-0.061 0.558-0.061 0.59 0.19-0.032 0.375-0.062 0.752-0.156 1.097-0.434 0.029-0.653-0.22-0.777-0.597zm14.594 10.063c-0.155-1.098 0.281-2.036 0.997-2.822 0.435-0.091 0.933-0.186 1.338 0.063-0.809 0.219-1.837 0.407-2.026 1.443 0.034 0.406-0.091 0.626 0.096 0.973 0.341 0.593 1.122 0.344 1.557 0.814 0 0.155-0.124 0.344-0.281 0.374-0.531-0.312-1.183-0.44-1.681-0.845zm-1.121 2.161c0.748-0.313 1.526-0.97 2.367-0.69-0.594 0.471-1.557 0.66-2.367 0.69zm2.958 0.314c-0.438 1.002-0.935 1.975-1.528 2.945-0.06 0.158-0.309 0.188-0.496 0.221 0-0.438 0.436-0.784 0.624-1.16 0.652-0.846 0.839-1.755 1.585-2.571 0.187 0.189-0.185 0.316-0.185 0.565zm0.775-1.816v0.123h-0.06v-0.156h0.124c-0.03 0-0.092 0-0.124 0.033h0.06zm-0.277-0.85c-0.529-0.061-1.029-0.217-1.495-0.373-0.313-0.315 0-0.66 0-1.004 0.436-0.689 1.679-1.036 2.273-0.408-0.096 0.69-0.343 1.285-0.778 1.785zm0.682 0c0.096-0.404 0.283-0.938 0.5-1.313-0.033 0.406-0.217 0.972-0.5 1.313zm0.343-2.538c-0.405-0.094-0.624-0.563-1.058-0.563 0.373-0.126 0.746-0.091 1.182-0.03 0.157 0.218-0.092 0.409-0.124 0.593zm0.375 0.942h-0.032v-0.346h0.032v0.346zm0.03 1.443c-0.03-0.128 0.063-0.282 0.094-0.439 0.155-0.157 0.311 0.127 0.373 0.22-0.092 0.156-0.28 0.249-0.467 0.219zm0.468-1.943c0.157-0.441 0.187-0.816 0.468-1.161 0.309 0 0.59 0 0.837 0.126 0.063 0.626 0.842 1.474 0 2.006-0.279 0.125-0.683 0.406-0.993 0.125-0.405-0.344-0.47-0.658-0.312-1.096zm2.271-0.877c-0.062-0.284 0.281-0.065 0.405-0.188l0.965 0.061c-0.499-0.062-1.121 1.097-1.37 0.127zm1.556 0.404c-0.375 0.126-0.654 0.565-1.027 0.661 0.187-0.346 0.652-0.693 1.027-0.661zm-1.307 1.943v0.095h-0.032v-0.095h0.032zm0.062 1.916c-0.031 0.063 0.03 0.153-0.063 0.218l-0.714-0.564c0.341-0.063 0.592 0.092 0.777 0.346zm-0.839-0.975c0.063-0.062 0.217-0.062 0.279 0h-0.279zm-0.439-0.468c0.125-0.188 0.282-0.473 0.501-0.473 0 0.033 0.03 0.063 0.062 0.095-0.188 0.158-0.345 0.315-0.563 0.378zm-0.713-0.063h-0.124l0.187-0.188c0.092 0.063-0.032 0.123-0.063 0.188zm0.091 1.189c0.407-0.438 0.78 0.251 0.935 0.596 0.469 0.69 1.681 1.316 1.215 2.258-0.593 0.533-1.528 0.03-2.178 0.438-0.343-0.03-0.935 0.063-1.122-0.281 0.343-1.004 0.654-2.134 1.15-3.011zm-0.869 0.596 0.155-0.249c-0.249 0.751-0.624 1.535-1.027 2.256-0.187-0.753 0.591-1.35 0.872-2.007zm1.37 3.73c-0.592 0.034-1.494 0.375-2.056-0.125 0.032-0.252-0.247-0.377-0.217-0.626 0.498-0.188 0.931 0.405 1.4-0.035 0.714 0.035 1.462-0.093 2.177 0.065 0.344 0.094 0.874-0.564 0.935 0.094-0.249 1.035-1.493 0.314-2.239 0.627zm1.804-4.514v-0.094h0.062v0.094h-0.062zm0.186 1.973c0.03 0.315 0.343 0.44 0.155 0.725-0.062-0.126-0.249-0.409-0.155-0.725zm0.873 1.883-0.156 0.063c-0.155-0.125-0.094-0.47-0.063-0.657 0.187 0.155 0.343 0.373 0.219 0.594zm1.555 0.754c-0.032 0.091-0.188 0.091-0.249 0.031-0.933-1.192-1.369-2.446-1.962-3.765l0.126-0.03c0.747 1.224 1.338 2.571 2.085 3.764zm1.151-2.884c-0.063 0.029-0.063 0.095-0.063 0.125-0.903 0.03-1.494-0.503-2.177-0.975l-0.034-0.154c0.844 0.062 1.526 0.594 2.274 1.004zm-0.808-4.169c0.373 0.095 0.403 0.499 0.435 0.813-0.032 0.692-0.405 1.285-1.057 1.536-0.343 0.19-0.873 0.252-1.216 0.126 0.749-0.032 1.556-0.313 1.868-1.063l-0.03-1.412zm-0.686-0.127c0.155 0.44 0.437 0.847 0.281 1.381-0.311 0.595-0.933 0.595-1.493 0.719-0.281 0.031-0.5-0.062-0.718-0.22 0.033-0.123-0.03-0.218-0.125-0.312 0.094-0.409-0.716-0.816-0.155-1.16 0.498-0.468 1.68-1.536 2.21-0.408zm14.035-9.717c0.498-0.25 1.308-0.22 1.806 0.063 0.403 0.098 0.871 0.283 1.025 0.658 0.467 0.439 0.343 1.225 0.249 1.789-0.279 0.563-0.716 0.97-1.338 1.063 0.03-0.75 0.716-1.286 0.467-2.13-0.403-0.599-1.214-0.784-1.96-0.626-0.281 0.188-0.155 0.5-0.249 0.783l-0.124 1.034c-0.624 0-0.656-0.562-0.84-1.004 0.03-0.658 0.311-1.316 0.964-1.63zm0.559 2.823c0.343-0.346-0.091-2.318 0.874-1.034 0 0.249 0.03 0.626-0.219 0.814-0.157 0.128-0.405 0.377-0.655 0.22zm0.343 0.785c0.03 0.5-0.434 0.375-0.683 0.563h-0.748c-0.156-0.253-0.092-0.628-0.092-0.88 0.497 0.093 1.056 0.093 1.523 0.317zm-23.991-1.005c2.799-0.03 5.663-0.188 8.337 0.281 0.871 0.033 1.621 0.252 2.458 0.315 1.745 0.218 3.362 0.688 5.137 0.813 0.279 0.095 0.622 0.095 0.933 0.158 2.799 0.438 5.942 1.22 8.618 0 0 1.128-0.464 2.161-0.622 3.257-0.247 0.314-0.03 0.816-0.339 1.101 0 0.561-0.467 0.842-0.874 1.065-3.702 0.813-7.343-0.442-10.921-1.065-5.011-1.101-10.861-1.412-15.964-0.254-2.397 0.44-4.73 1.003-7.033 1.664-1.431 0.187-2.985 0.404-4.357-0.033-1.12-0.535-0.654-1.975-0.995-2.978 0.062-0.781-0.219-1.41-0.249-2.164-0.094-0.248-0.156-0.563-0.125-0.814 0.467 0.063 0.935 0.41 1.431 0.534 2.614 0.501 4.949-0.346 7.376-0.784 2.334-0.499 4.73-0.907 7.189-1.096zm-9.118 3.232 0.41 1.729c0.135 0.56 0.336 0.702 0.649 0.836 0.471 0.199 1.059 0.093 1.328 0.025 0.37-0.089 0.886-0.317 1.128-0.672 0.205-0.291 0.183-0.776 0.109-1.082l-0.391-1.648c-0.081-0.345 0.048-0.435 0.378-0.56l-0.03-0.129-1.358 0.327 0.03 0.13c0.537-0.107 0.652 0.051 0.726 0.366l0.375 1.581c0.076 0.331 0.252 1.126-0.832 1.386-0.891 0.215-1.061-0.5-1.129-0.796l-0.41-1.729c-0.106-0.455 0.084-0.506 0.488-0.622l-0.031-0.128-2.088 0.5 0.032 0.131c0.351-0.052 0.514-0.081 0.616 0.355zm26.476 2.839-0.015 0.133 1.283 0.133 0.013-0.133c-0.213-0.032-0.516-0.081-0.494-0.278 7e-3 -0.087 0.131-0.292 0.348-0.657l1.42 0.147c0.07 0.178 0.232 0.592 0.219 0.734-0.017 0.177-0.131 0.17-0.528 0.155l-0.014 0.134 2.047 0.21 0.014-0.131c-0.306-0.021-0.387-0.213-0.614-0.809l-1.125-2.936-0.177-0.017-1.696 2.759c-0.231 0.379-0.338 0.55-0.681 0.556zm1.975-2.226 0.506 1.354-1.23-0.128 0.724-1.226zm-21.716-27.074c0.371 0 0.314-0.261 0.359-0.388 0.017 0.193 0.198-0.096 0.198 0.243 0 0.351-0.363 0.196-0.363 0.499 0 0.409 0.573-0.014 0.573 0.438 0 0.545-0.069 0.532-0.069 0.742 0 0.141 0.599-0.199 0.563-0.26 0.144 0.05 0.137 0.474 0.402 0.464 0.175-8e-3 0.211-0.433 0.346-0.47-0.081 0.02 0.542 0.404 0.542 0.209 0-0.53-0.217-0.304-0.217-0.667 0-0.336 0.734-0.272 0.617-0.444-0.096-0.144-0.162-0.056-0.241-0.307 0.014 0.046-0.576-0.842 0.123-0.386 0.736 0.483 0.82-1.117 0.78-1.201-0.019-0.041-0.352 0.086-0.477 0.157 0.056-0.204 0.374-0.554 0.528-0.69-0.031-0.228-0.321-0.021-0.627 0.139 1.017-1.455 0.365-0.86-0.203-0.755 0.908-0.978 0.669-0.96 0-0.657 0.524-0.417 0.635-0.912 0.555-1.056-0.491 0.655-0.945 0.555-0.945 1.161 0 0.401-0.145 1.059-0.35 1.284-0.267 0.287-0.064-1.075-0.76-1.075-0.222 0-0.748-0.02-0.908 0.252 0.141 0 0.354 0.365 0.354 0.506 0 0.144 0.133 0.539-0.106 0.539s-0.514-0.498-0.514-0.74c0-0.24-0.017-0.183-0.017-0.528 0-0.577-0.938-1.387-1.319-1.387 0 0.401 0.522 0.497 0.522 1.011-0.22 0-0.538-0.418-0.538-0.161s0.333 0.304 0.333 0.532c0 0.222-0.38-0.083-0.38 0.16 0 0.209 0.207 0.175 0.259 0.381-0.156-0.045-0.296-0.024-0.323 0.055-0.023 0.068 0.047 0.158 0.163 0.224-0.054 0.052-0.099 0.17-0.099 0.508 1e-3 1.138 0.714 1.668 1.239 1.668zm-0.614 2.025 6.861 4.099c0.153 0.175 0.375 0.282 0.627 0.282 0.215 0 0.41-0.083 0.558-0.219l6.968-4.162c0.815-0.375 1.403-1.592 1.403-2.982l0.013-14.407h-3e-3v-0.01h-17.841v0.01h-1e-3l0.015 14.407c0 1.39 0.588 2.607 1.4 2.982zm4.517-7.344h-1.543v-3.504h1.543v3.504zm-1.039-5.069 0.289 0.031 0.171-0.307 0.173 0.3 0.291-0.024-0.136 0.249 0.22 0.231-0.279 0.053v0.313l-0.269-0.199-0.262 0.199v-0.313l-0.281-0.053 0.22-0.231-0.137-0.249zm7.023-4.496h5.426v9.564h-5.426v-9.564zm0 10.054h5.426v4.057c-0.094 1.032-0.444 1.891-1.157 2.377l-4.27 2.55v-8.984zm-5.499-10.054h5.011v9.564h-5.011v-9.564zm0 10.054h5.011v9.274l-1.972 1.178h-0.033c-0.143 0.111-0.321 0.185-0.52 0.185-0.202 0-0.383-0.075-0.526-0.19l-1.96-1.172v-9.275zm-2.029-10.054h1.543v3.69h-1.543v-3.69zm-1.459 0.903 0.288 0.03 0.173-0.305 0.171 0.299 0.292-0.025-0.138 0.252 0.218 0.228-0.279 0.054v0.313l-0.266-0.199-0.266 0.199v-0.313l-0.279-0.054 0.219-0.228-0.133-0.251zm-0.073 3.242c0.517 0 0.373 0.5 0.457 0.5s-7e-3 -0.5 0.339-0.5c0.514 0 1.157 1.318 0.575 1.318-0.25 0-0.05-0.186-0.054-0.222-0.013-0.094-0.138-0.118-0.188-0.118-0.168 0-0.236 0.274-0.373 0.281-0.104 6e-3 -0.178 0.017-0.178-0.109 0-0.094 0.211-0.167 0.294-0.248-1.157 0-1.18 0.532-1.36 0.532-0.304 0 0.252-0.56 0.414-0.723-0.234-0.037-0.37-0.325-0.625-0.471 0.119-0.175 0.188-0.1 0.34 0.023-1e-3 -0.122 0.089-0.263 0.359-0.263zm-0.011 4.39 0.219-0.229-0.135-0.25 0.288 0.031 0.173-0.304 0.171 0.301 0.292-0.028-0.138 0.25 0.218 0.229-0.279 0.056v0.311l-0.266-0.199-0.266 0.199v-0.311l-0.277-0.056zm-2.339-8.535h1.872v3.69h-1.872v-3.69zm0.225 4.976 0.219-0.231-0.137-0.249 0.288 0.031 0.175-0.307 0.171 0.3 0.289-0.024-0.134 0.249 0.218 0.231-0.279 0.053v0.313l-0.266-0.199-0.266 0.199v-0.313l-0.278-0.053zm-0.225 1.085h1.872v3.503h-1.872v-3.503zm0 3.993h5.426v8.984l-4.27-2.55c-0.712-0.486-1.065-1.345-1.156-2.377v-4.057zm9.335 7.334c0.475-0.238 0.915-0.566 1.184-1.014 0.029-0.504 0.175-1.159-0.118-1.577-0.356-0.447-0.474-1.163-0.622-1.757-0.148-0.834 0.888-0.119 0.945-0.747-0.296-0.325-0.736-0.921-1.271-0.503-0.294 0.235-0.444 0.623-0.354 1.038 0.119 0.805 0.472 1.55 0.591 2.295-0.178-0.088-0.297-0.269-0.442-0.388-0.622-0.802-1.775-0.565-2.484-1.31-0.857 0.063 0.562 0.953-0.444 1.131-0.03 0.208 0.209 0.33 0.209 0.538-0.091 0.089-0.209 0.089-0.299 0.146 0 0.538 0.326 1.016 0.504 1.491 0.413 1.103 1.714 0.569 2.601 0.657zm0.594-10.301-0.173 0.015-0.101-0.178-0.104 0.181-0.172-0.018 0.083 0.149-0.133 0.135 0.168 0.033v0.186l0.158-0.119 0.158 0.119v-0.186l0.165-0.033-0.129-0.135 0.08-0.149zm0.063-1.707-0.31 0.031-0.178-0.316-0.185 0.32-0.301-0.034 0.143 0.268-0.231 0.243 0.295 0.054v0.332l0.279-0.21 0.279 0.21v-0.332l0.292-0.054-0.229-0.243 0.146-0.269zm-10.342 11.688c0.156 0 0.282-0.136 0.282-0.306 0-0.086-0.276-0.549-0.276-0.549s-0.284 0.54-0.284 0.549c1e-3 0.17 0.125 0.306 0.278 0.306zm-0.75-17.682c0.154 0 0.279-0.139 0.279-0.305 0-0.012-0.284-0.552-0.284-0.552s-0.276 0.464-0.276 0.552c0 0.166 0.126 0.305 0.281 0.305zm-4.407 17.293c-0.326 0-0.588 0.23-0.588 0.518 0 0.284 0.262 0.516 0.588 0.516 0.323 0 0.585-0.231 0.585-0.516 0-0.288-0.262-0.518-0.585-0.518zm4.687-4.88c0-0.085-0.276-0.547-0.276-0.547s-0.284 0.541-0.284 0.547c0 0.17 0.126 0.307 0.281 0.307 0.154 0 0.279-0.137 0.279-0.307zm0-6.268c0-0.086-0.276-0.552-0.276-0.552s-0.285 0.541-0.285 0.552c0 0.171 0.126 0.304 0.281 0.304s0.28-0.133 0.28-0.304zm16.029-2.016 0.686-2.597-1.735 0.675-1.762-0.675 0.656 2.597-1.345-0.222 0.376 1.509-0.376 1.573 1.405-0.395-0.716 2.799 1.762-0.676 1.735 0.676-0.531-2.799 1.217 0.331-0.467-1.509 0.467-1.573-1.372 0.286zm-0.209 2.084h-1.417c-0.624 0-0.62-0.42-0.62-1.049 0-0.911 0.871-0.126 1.187-0.975 0.434 1.007 1.281-0.06 1.281 1.007 0 0.473-0.036 1.017-0.431 1.017zm-0.776-1.339c-0.407 0-0.953-0.202-0.953 0.375 0 0.409 0.546 0.139 0.953 0.139s0.951 0.271 0.951-0.139c0-0.577-0.544-0.375-0.951-0.375zm-10.626-4.874c0.153 0 0.277-0.139 0.277-0.305 0-0.012-0.283-0.552-0.283-0.552s-0.274 0.464-0.274 0.552c1e-3 0.166 0.126 0.305 0.28 0.305zm9.398 0c0.155 0 0.279-0.139 0.279-0.305 0-0.012-0.286-0.552-0.286-0.552s-0.272 0.464-0.272 0.552c1e-3 0.166 0.125 0.305 0.279 0.305zm-4.699 0c0.155 0 0.279-0.139 0.279-0.305 0-0.012-0.283-0.552-0.283-0.552s-0.275 0.464-0.275 0.552c0 0.166 0.126 0.305 0.279 0.305zm-1.395 6.783v0.33l0.279-0.21 0.279 0.21v-0.33l0.296-0.056-0.232-0.242 0.145-0.263-0.31 0.026-0.178-0.315-0.185 0.319-0.3-0.03 0.144 0.263-0.234 0.242 0.296 0.056zm1.751 1.401-0.528 0.049-0.306-0.545-0.315 0.552-0.519-0.056 0.245 0.452-0.396 0.415 0.508 0.096v0.562l0.478-0.356 0.477 0.356v-0.562l0.504-0.096-0.394-0.415 0.246-0.452zm0.237-3.462 0.146-0.264-0.309 0.028-0.178-0.318-0.185 0.322-0.301-0.032 0.143 0.264-0.232 0.242 0.296 0.056v0.33l0.279-0.209 0.279 0.209v-0.33l0.296-0.056-0.234-0.242zm7.019 10.211c0-0.447 0.472-0.625 0.443-1.1-0.178-0.479-0.74-0.479-0.887-0.924 0.178-0.12 0.444-0.091 0.62 0 0.059 0.09 0.207 0.119 0.394 0.055l0.178-0.506c0.015-0.035-0.205-0.236-0.334-0.204-0.502 0.117-1.035 0.178-1.33 0.655 0 0.327 0.235 0.625 0.473 0.772 0.178-0.059 0.207 0.12 0.326 0.21 0.029 0.15-0.061 0.269-0.207 0.269-0.356-0.359-0.977 0.12-1.243-0.327 0.118-0.447 0.353-0.956-0.03-1.373 0.03-0.09 0.178-0.178 0.091-0.268-0.148-0.415-0.592-0.088-0.861-0.088-0.44-0.061-0.797 0.178-1.063 0.533 0.029 0.15 0.088 0.299 0.235 0.452 0.12-0.032 0.178 0 0.208 0.117l-0.297 0.179c0.089 0.09 0.089 0.206 0.119 0.326-0.208 0.089-0.414-0.208-0.502-0.357 0-0.239 0.03-0.655-0.297-0.716-0.058 0-0.256 0.09-0.256 0.09-0.07 0.089-0.121 0.273-0.121 0.491 0 0.211 0.117 0.535 0.117 0.535s0.911 0.673 1.116 1.088c-0.265 0.538-0.265 1.283-0.886 1.579-0.176 0.117-0.176 0.3-0.176 0.478l0.147 0.122c0.385-0.211 1.123-0.269 1.066-0.927 0.148-0.268 0.292-0.564 0.558-0.773 0.299-0.058 0.563 0.093 0.681 0.328-0.089 0.445-0.382 0.745-0.799 0.891-0.057 0.063-0.03 0.152-0.03 0.24 0.121 0.209 0.447 0.12 0.621 0.09 0.505-0.33 0.709-0.921 1.153-1.101 0.061 0.296-0.591 0.388-0.176 0.683 0.266-0.058 0.622 0.032 0.798-0.326-0.204-0.509 0.712-0.747 0.151-1.193zm-8.581-11.854v0.376c0 0.1 0.077 0.178 0.175 0.178h1.358c0.099 0 0.178-0.078 0.178-0.178v-0.409c0.163-0.139 0.275-0.362 0.275-0.654 0-1.279-0.718-0.08-1.114-1.168-0.291 0.92-1.155 0.148-1.155 1.136 1e-3 0.379 0.098 0.594 0.283 0.719zm0.801-1.114c0.373 0 0.952-0.139 0.952 0.488 0 0.444-0.501 0.187-0.875 0.187s-0.874 0.257-0.874-0.187c0-0.627 0.424-0.488 0.797-0.488z"/>
  <polygon points="303.91 47.341 106.85 47.341 106.85 45.854 303.91 45.854"/>
  <path d="m107.59 68.364v-0.324h0.398c0.348 0 0.617-0.057 0.802-0.166s0.323-0.259 0.412-0.447c0.052-0.124 0.079-0.495 0.079-1.115v-7.9c0-0.612-0.032-0.996-0.097-1.148-0.064-0.155-0.195-0.289-0.394-0.404s-0.464-0.174-0.802-0.174h-0.398v-0.326h5.375c1.434 0 2.588 0.194 3.463 0.585 1.067 0.478 1.877 1.2 2.431 2.167 0.551 0.969 0.827 2.065 0.827 3.288 0 0.843-0.137 1.621-0.408 2.333-0.272 0.711-0.623 1.299-1.053 1.761-0.432 0.464-0.93 0.836-1.493 1.116s-1.252 0.498-2.067 0.65c-0.359 0.071-0.926 0.105-1.699 0.105h-5.376zm4.579-11.323v9.368c0 0.495 0.023 0.799 0.07 0.911s0.127 0.199 0.239 0.256c0.159 0.09 0.39 0.135 0.691 0.135 0.986 0 1.738-0.337 2.257-1.011 0.709-0.908 1.063-2.318 1.063-4.232 0-1.539-0.242-2.771-0.726-3.693-0.384-0.719-0.876-1.209-1.479-1.468-0.425-0.184-1.13-0.274-2.115-0.266z"/>
  <path d="m128.07 63.929h-4.543c0.055 1.099 0.347 1.967 0.878 2.604 0.406 0.491 0.897 0.734 1.468 0.734 0.356 0 0.676-0.099 0.965-0.296 0.29-0.198 0.6-0.556 0.932-1.067l0.299 0.194c-0.447 0.915-0.945 1.564-1.486 1.944-0.544 0.381-1.173 0.571-1.886 0.571-1.228 0-2.158-0.473-2.791-1.418-0.507-0.762-0.761-1.705-0.761-2.833 0-1.38 0.375-2.481 1.122-3.298 0.746-0.818 1.62-1.227 2.625-1.227 0.837 0 1.565 0.344 2.183 1.03 0.616 0.691 0.947 1.71 0.995 3.062zm-2.18-0.593c0-0.95-0.05-1.603-0.153-1.958-0.104-0.354-0.263-0.621-0.482-0.804-0.123-0.108-0.289-0.159-0.497-0.159-0.305 0-0.558 0.148-0.75 0.451-0.348 0.524-0.523 1.246-0.523 2.159v0.311h2.405z"/>
  <path d="m132.31 67.524v3.08c0 0.426 0.034 0.717 0.1 0.868 0.068 0.155 0.175 0.267 0.316 0.336 0.141 0.073 0.418 0.108 0.83 0.108v0.328h-4.717v-0.328c0.365-0.013 0.637-0.116 0.814-0.309 0.117-0.137 0.176-0.488 0.176-1.055v-8.741c0-0.583-0.068-0.959-0.204-1.12-0.135-0.162-0.398-0.255-0.787-0.277v-0.328h3.471v1.089c0.289-0.425 0.583-0.733 0.885-0.921 0.431-0.278 0.899-0.416 1.407-0.416 0.609 0 1.161 0.191 1.661 0.576 0.499 0.383 0.877 0.911 1.138 1.588 0.26 0.678 0.388 1.402 0.388 2.184 0 0.838-0.132 1.604-0.401 2.297-0.268 0.694-0.658 1.224-1.168 1.585-0.511 0.363-1.079 0.546-1.704 0.546-0.456 0-0.881-0.102-1.276-0.301-0.294-0.155-0.605-0.417-0.929-0.789zm0-0.893c0.508 0.719 1.05 1.08 1.628 1.08 0.319 0 0.582-0.17 0.789-0.506 0.306-0.495 0.46-1.44 0.46-2.833 0-1.429-0.168-2.404-0.504-2.932-0.225-0.348-0.526-0.522-0.904-0.522-0.594 0-1.085 0.433-1.468 1.293v4.42z"/>
  <path d="m143.76 67.145c-1.011 0.891-1.917 1.336-2.72 1.336-0.473 0-0.863-0.153-1.177-0.465-0.313-0.309-0.471-0.698-0.471-1.163 0-0.632 0.273-1.2 0.816-1.707 0.542-0.504 1.727-1.175 3.552-2.014v-0.831c0-0.626-0.035-1.021-0.105-1.183-0.067-0.162-0.194-0.304-0.383-0.426-0.19-0.119-0.401-0.181-0.638-0.181-0.383 0-0.699 0.085-0.949 0.257-0.152 0.106-0.228 0.229-0.228 0.371 0 0.125 0.082 0.278 0.246 0.461 0.223 0.253 0.337 0.498 0.337 0.735 0 0.288-0.106 0.536-0.324 0.738-0.216 0.204-0.497 0.308-0.845 0.308-0.372 0-0.682-0.113-0.935-0.34-0.25-0.223-0.377-0.484-0.377-0.785 0-0.426 0.169-0.833 0.504-1.219 0.338-0.387 0.807-0.683 1.409-0.89 0.602-0.206 1.227-0.31 1.877-0.31 0.786 0 1.407 0.167 1.865 0.5 0.456 0.334 0.752 0.696 0.891 1.084 0.081 0.249 0.123 0.818 0.123 1.709v3.215c0 0.378 0.015 0.617 0.044 0.713 0.029 0.097 0.075 0.168 0.132 0.216 0.061 0.048 0.128 0.072 0.205 0.072 0.152 0 0.309-0.109 0.468-0.328l0.266 0.213c-0.296 0.437-0.601 0.754-0.917 0.951-0.316 0.198-0.675 0.297-1.076 0.297-0.474 0-0.842-0.111-1.108-0.333-0.262-0.217-0.426-0.555-0.482-1.001zm0-0.648v-2.772c-0.716 0.421-1.248 0.868-1.596 1.347-0.229 0.317-0.345 0.642-0.345 0.965 0 0.272 0.099 0.511 0.293 0.719 0.146 0.158 0.353 0.239 0.619 0.239 0.297-1e-3 0.639-0.167 1.029-0.498z"/>
  <path d="m151.7 60.087v1.877c0.548-0.856 1.029-1.423 1.442-1.704s0.813-0.421 1.196-0.421c0.331 0 0.595 0.102 0.792 0.306 0.197 0.202 0.297 0.492 0.297 0.863 0 0.395-0.096 0.702-0.288 0.921-0.191 0.219-0.423 0.328-0.696 0.328-0.312 0-0.582-0.102-0.813-0.303-0.232-0.2-0.366-0.313-0.407-0.336-0.06-0.036-0.128-0.053-0.204-0.053-0.171 0-0.333 0.065-0.488 0.195-0.243 0.199-0.424 0.485-0.548 0.859-0.188 0.571-0.283 1.203-0.283 1.894v1.902l7e-3 0.497c0 0.338 0.021 0.552 0.064 0.646 0.07 0.159 0.175 0.276 0.312 0.35 0.14 0.074 0.374 0.12 0.707 0.138v0.317h-4.473v-0.317c0.36-0.03 0.604-0.129 0.731-0.298 0.126-0.167 0.19-0.61 0.19-1.333v-4.575c0-0.473-0.024-0.773-0.073-0.902-0.056-0.166-0.145-0.289-0.255-0.363-0.112-0.077-0.309-0.132-0.593-0.159v-0.328h3.383z"/>
  <path d="m159.6 57.058v3.029h1.967v0.877h-1.967v5.107c0 0.48 0.023 0.787 0.067 0.928 0.044 0.138 0.12 0.25 0.235 0.335 0.111 0.087 0.214 0.128 0.309 0.128 0.383 0 0.746-0.292 1.09-0.875l0.266 0.192c-0.479 1.136-1.255 1.701-2.33 1.701-0.524 0-0.968-0.146-1.331-0.438-0.363-0.294-0.596-0.619-0.696-0.979-0.059-0.2-0.088-0.743-0.088-1.629v-4.471h-1.082v-0.311c0.745-0.524 1.379-1.078 1.899-1.656 0.524-0.578 0.978-1.226 1.368-1.939h0.293z"/>
  <path d="m165.78 60.087v1.089c0.454-0.497 0.875-0.843 1.263-1.041 0.386-0.199 0.812-0.296 1.271-0.296 0.53 0 0.976 0.123 1.336 0.372 0.36 0.246 0.638 0.625 0.834 1.132 0.47-0.53 0.925-0.913 1.357-1.15 0.435-0.235 0.888-0.354 1.36-0.354 0.573 0 1.029 0.132 1.368 0.394 0.339 0.263 0.575 0.596 0.708 1 0.135 0.405 0.2 1.049 0.2 1.935v3.393c0 0.637 0.057 1.031 0.174 1.187 0.113 0.153 0.354 0.254 0.72 0.301v0.317h-4.278v-0.317c0.336-0.03 0.586-0.159 0.745-0.391 0.106-0.159 0.159-0.525 0.159-1.097v-3.561c0-0.739-0.03-1.207-0.088-1.409-0.06-0.2-0.153-0.35-0.278-0.446-0.127-0.096-0.276-0.146-0.446-0.146-0.256 0-0.511 0.093-0.772 0.278-0.26 0.188-0.522 0.465-0.787 0.838v4.445c0 0.596 0.05 0.973 0.15 1.124 0.136 0.22 0.394 0.341 0.778 0.363v0.317h-4.284v-0.317c0.228-0.012 0.41-0.068 0.544-0.173 0.132-0.102 0.221-0.227 0.266-0.371 0.044-0.145 0.065-0.459 0.065-0.943v-3.56c0-0.751-0.028-1.219-0.088-1.409-0.06-0.188-0.158-0.336-0.297-0.442-0.14-0.106-0.288-0.159-0.446-0.159-0.235 0-0.453 0.063-0.647 0.187-0.278 0.183-0.573 0.496-0.886 0.938v4.445c0 0.585 0.058 0.97 0.173 1.154 0.115 0.188 0.355 0.299 0.721 0.333v0.317h-4.267v-0.317c0.347-0.034 0.596-0.147 0.743-0.336 0.101-0.13 0.152-0.515 0.152-1.151v-4.677c0-0.625-0.06-1.016-0.175-1.167-0.115-0.153-0.354-0.254-0.721-0.301v-0.328h3.373z"/>
  <path d="m184.47 63.929h-4.544c0.053 1.099 0.345 1.967 0.877 2.604 0.407 0.491 0.896 0.734 1.47 0.734 0.354 0 0.678-0.099 0.966-0.296 0.289-0.198 0.6-0.556 0.929-1.067l0.303 0.194c-0.45 0.915-0.945 1.564-1.489 1.944-0.541 0.381-1.17 0.571-1.886 0.571-1.229 0-2.157-0.473-2.789-1.418-0.508-0.762-0.762-1.705-0.762-2.833 0-1.38 0.372-2.481 1.118-3.298 0.747-0.818 1.625-1.227 2.627-1.227 0.84 0 1.566 0.344 2.184 1.03 0.616 0.691 0.949 1.71 0.996 3.062zm-2.18-0.593c0-0.95-0.052-1.603-0.154-1.958-0.104-0.354-0.265-0.621-0.483-0.804-0.123-0.108-0.289-0.159-0.494-0.159-0.309 0-0.558 0.148-0.754 0.451-0.35 0.524-0.522 1.246-0.522 2.159v0.311h2.407z"/>
  <path d="m188.89 60.087v1.069c0.425-0.46 0.834-0.795 1.223-1.005 0.39-0.208 0.808-0.313 1.259-0.313 0.536 0 0.981 0.148 1.336 0.448 0.354 0.296 0.59 0.667 0.708 1.109 0.095 0.337 0.142 0.983 0.142 1.939v3.224c0 0.637 0.057 1.033 0.173 1.189 0.116 0.158 0.356 0.256 0.721 0.298v0.317h-4.188v-0.317c0.314-0.042 0.538-0.172 0.673-0.391 0.096-0.147 0.144-0.512 0.144-1.097v-3.685c0-0.678-0.026-1.106-0.081-1.284-0.053-0.176-0.143-0.314-0.269-0.412-0.128-0.096-0.27-0.144-0.421-0.144-0.508 0-0.98 0.361-1.418 1.088v4.437c0 0.62 0.058 1.012 0.173 1.176 0.117 0.168 0.328 0.27 0.643 0.312v0.317h-4.187v-0.317c0.345-0.034 0.594-0.147 0.741-0.336 0.103-0.13 0.152-0.515 0.152-1.151v-4.677c0-0.625-0.06-1.016-0.173-1.167-0.116-0.153-0.356-0.254-0.721-0.301v-0.328h3.37z"/>
  <path d="m198.88 57.058v3.029h1.966v0.877h-1.966v5.107c0 0.48 0.023 0.787 0.068 0.928 0.042 0.138 0.121 0.25 0.233 0.335 0.111 0.087 0.216 0.128 0.311 0.128 0.383 0 0.746-0.292 1.09-0.875l0.264 0.192c-0.477 1.136-1.254 1.701-2.329 1.701-0.524 0-0.969-0.146-1.332-0.438-0.361-0.294-0.594-0.619-0.694-0.979-0.06-0.2-0.088-0.743-0.088-1.629v-4.471h-1.081v-0.311c0.743-0.524 1.377-1.078 1.898-1.656 0.524-0.578 0.978-1.226 1.368-1.939h0.292z"/>
  <path d="m210.07 59.839c0.722 0 1.391 0.186 2.011 0.556 0.62 0.374 1.091 0.901 1.411 1.586 0.322 0.687 0.483 1.436 0.483 2.249 0 1.175-0.298 2.158-0.895 2.95-0.72 0.956-1.715 1.435-2.985 1.435-1.243 0-2.204-0.438-2.875-1.312-0.675-0.873-1.011-1.887-1.011-3.037 0-1.187 0.345-2.222 1.031-3.104 0.689-0.883 1.632-1.323 2.83-1.323zm0.036 0.627c-0.301 0-0.56 0.114-0.775 0.341-0.216 0.229-0.356 0.678-0.426 1.347-0.066 0.672-0.1 1.602-0.1 2.795 0 0.631 0.039 1.222 0.123 1.77 0.063 0.421 0.202 0.738 0.416 0.959 0.213 0.215 0.455 0.326 0.726 0.326 0.266 0 0.486-0.074 0.664-0.222 0.23-0.2 0.383-0.48 0.46-0.842 0.119-0.56 0.18-1.694 0.18-3.4 0-1.004-0.058-1.692-0.169-2.068-0.114-0.374-0.279-0.647-0.497-0.817-0.153-0.127-0.353-0.189-0.602-0.189z"/>
  <path d="m218.86 60.954v5.746c0 0.555 0.06 0.903 0.178 1.046 0.188 0.219 0.537 0.317 1.045 0.301v0.317h-4.881v-0.317c0.374-6e-3 0.637-0.048 0.794-0.129 0.156-0.079 0.264-0.19 0.323-0.331 0.061-0.142 0.088-0.438 0.088-0.887v-5.746h-1.205v-0.867h1.205v-0.611l-7e-3 -0.417c0-0.851 0.309-1.558 0.933-2.124 0.623-0.568 1.465-0.852 2.527-0.852 0.727 0 1.267 0.137 1.616 0.407 0.353 0.272 0.527 0.573 0.527 0.903 0 0.268-0.109 0.497-0.327 0.692-0.219 0.193-0.508 0.291-0.869 0.291-0.306 0-0.549-0.079-0.729-0.239-0.181-0.159-0.27-0.336-0.27-0.53 0-0.055 0.017-0.164 0.052-0.328 0.026-0.102 0.035-0.194 0.035-0.282 0-0.125-0.035-0.218-0.104-0.275-0.095-0.09-0.212-0.134-0.346-0.134-0.171 0-0.315 0.071-0.43 0.214-0.114 0.142-0.172 0.368-0.172 0.682l0.017 1.548v1.056h1.223v0.867h-1.223z"/>
  <path d="m225.43 68.364v-0.324h0.397c0.349 0 0.614-0.057 0.8-0.166 0.187-0.109 0.322-0.259 0.413-0.447 0.055-0.124 0.079-0.495 0.079-1.115v-7.9c0-0.612-0.031-0.996-0.097-1.148-0.065-0.155-0.196-0.289-0.396-0.404-0.196-0.115-0.464-0.174-0.8-0.174h-0.397v-0.326h5.374c1.435 0 2.588 0.194 3.462 0.585 1.068 0.478 1.878 1.2 2.43 2.167 0.552 0.969 0.827 2.065 0.827 3.288 0 0.843-0.134 1.621-0.406 2.333-0.271 0.711-0.621 1.299-1.053 1.761-0.432 0.464-0.929 0.836-1.492 1.116-0.564 0.28-1.254 0.498-2.067 0.65-0.36 0.071-0.929 0.105-1.7 0.105h-5.374zm4.576-11.323v9.368c0 0.495 0.023 0.799 0.071 0.911 0.047 0.112 0.127 0.199 0.238 0.256 0.161 0.09 0.39 0.135 0.691 0.135 0.986 0 1.739-0.337 2.259-1.011 0.707-0.908 1.063-2.318 1.063-4.232 0-1.539-0.242-2.771-0.727-3.693-0.385-0.719-0.876-1.209-1.478-1.468-0.426-0.184-1.133-0.274-2.117-0.266z"/>
  <path d="m245.92 63.929h-4.545c0.052 1.099 0.346 1.967 0.876 2.604 0.407 0.491 0.898 0.734 1.471 0.734 0.354 0 0.677-0.099 0.966-0.296 0.288-0.198 0.6-0.556 0.928-1.067l0.305 0.194c-0.452 0.915-0.945 1.564-1.49 1.944-0.544 0.381-1.171 0.571-1.886 0.571-1.228 0-2.159-0.473-2.789-1.418-0.507-0.762-0.761-1.705-0.761-2.833 0-1.38 0.372-2.481 1.118-3.298 0.746-0.818 1.623-1.227 2.626-1.227 0.839 0 1.567 0.344 2.183 1.03 0.618 0.691 0.95 1.71 0.998 3.062zm-2.18-0.593c0-0.95-0.053-1.603-0.155-1.958-0.104-0.354-0.265-0.621-0.483-0.804-0.124-0.108-0.288-0.159-0.495-0.159-0.309 0-0.56 0.148-0.752 0.451-0.35 0.524-0.524 1.246-0.524 2.159v0.311h2.409z"/>
  <path d="m250.58 60.954v5.746c0 0.555 0.057 0.903 0.177 1.046 0.188 0.219 0.536 0.317 1.044 0.301v0.317h-4.878v-0.317c0.372-6e-3 0.635-0.048 0.793-0.129 0.155-0.079 0.263-0.19 0.323-0.331 0.057-0.142 0.087-0.438 0.087-0.887v-5.746h-1.203v-0.867h1.203v-0.611l-8e-3 -0.417c0-0.851 0.311-1.558 0.932-2.124 0.625-0.568 1.467-0.852 2.529-0.852 0.727 0 1.266 0.137 1.617 0.407 0.351 0.272 0.527 0.573 0.527 0.903 0 0.268-0.111 0.497-0.33 0.692-0.217 0.193-0.508 0.291-0.866 0.291-0.307 0-0.55-0.079-0.729-0.239-0.183-0.159-0.271-0.336-0.271-0.53 0-0.055 0.019-0.164 0.052-0.328 0.024-0.102 0.036-0.194 0.036-0.282 0-0.125-0.036-0.218-0.107-0.275-0.095-0.09-0.208-0.134-0.344-0.134-0.172 0-0.314 0.071-0.429 0.214-0.117 0.142-0.173 0.368-0.173 0.682l0.018 1.548v1.056h1.221v0.867h-1.221z"/>
  <path d="m260 63.929h-4.541c0.054 1.099 0.345 1.967 0.877 2.604 0.407 0.491 0.898 0.734 1.47 0.734 0.354 0 0.675-0.099 0.964-0.296 0.29-0.198 0.599-0.556 0.932-1.067l0.299 0.194c-0.446 0.915-0.945 1.564-1.486 1.944-0.544 0.381-1.173 0.571-1.886 0.571-1.229 0-2.158-0.473-2.79-1.418-0.508-0.762-0.762-1.705-0.762-2.833 0-1.38 0.374-2.481 1.121-3.298 0.747-0.818 1.62-1.227 2.627-1.227 0.836 0 1.563 0.344 2.181 1.03 0.614 0.691 0.947 1.71 0.994 3.062zm-2.178-0.593c0-0.95-0.052-1.603-0.155-1.958-0.103-0.354-0.264-0.621-0.479-0.804-0.125-0.108-0.292-0.159-0.499-0.159-0.306 0-0.558 0.148-0.752 0.451-0.347 0.524-0.521 1.246-0.521 2.159v0.311h2.406z"/>
  <path d="m264.42 60.087v1.069c0.425-0.46 0.83-0.795 1.221-1.005 0.391-0.208 0.811-0.313 1.257-0.313 0.538 0 0.983 0.148 1.339 0.448 0.353 0.296 0.59 0.667 0.707 1.109 0.096 0.337 0.142 0.983 0.142 1.939v3.224c0 0.637 0.059 1.033 0.173 1.189 0.115 0.158 0.357 0.256 0.724 0.298v0.317h-4.19v-0.317c0.313-0.042 0.538-0.172 0.674-0.391 0.094-0.147 0.141-0.512 0.141-1.097v-3.685c0-0.678-0.027-1.106-0.078-1.284-0.052-0.176-0.144-0.314-0.271-0.412-0.126-0.096-0.266-0.144-0.421-0.144-0.507 0-0.979 0.361-1.415 1.088v4.437c0 0.62 0.059 1.012 0.172 1.176 0.114 0.168 0.33 0.27 0.642 0.312v0.317h-4.188v-0.317c0.348-0.034 0.598-0.147 0.743-0.336 0.101-0.13 0.15-0.515 0.15-1.151v-4.677c0-0.625-0.056-1.016-0.17-1.167-0.117-0.153-0.357-0.254-0.724-0.301v-0.328h3.372z"/>
  <path d="m277.88 66.232 0.275 0.211c-0.389 0.733-0.875 1.278-1.457 1.634-0.581 0.359-1.198 0.537-1.854 0.537-1.104 0-1.986-0.417-2.649-1.25-0.659-0.831-0.99-1.832-0.99-3.001 0-1.126 0.302-2.119 0.904-2.976 0.727-1.032 1.725-1.549 3.001-1.549 0.854 0 1.535 0.216 2.041 0.646 0.505 0.431 0.757 0.912 0.757 1.444 0 0.336-0.102 0.604-0.307 0.805-0.204 0.203-0.47 0.302-0.8 0.302-0.35 0-0.637-0.114-0.864-0.346-0.227-0.229-0.366-0.64-0.42-1.229-0.038-0.373-0.121-0.632-0.257-0.781-0.137-0.146-0.296-0.222-0.479-0.222-0.283 0-0.524 0.152-0.726 0.453-0.307 0.453-0.462 1.15-0.462 2.09 0 0.779 0.125 1.524 0.374 2.235s0.588 1.242 1.019 1.59c0.323 0.254 0.71 0.38 1.15 0.38 0.288 0 0.563-0.066 0.823-0.203 0.26-0.136 0.568-0.393 0.921-0.77z"/>
  <path d="m286.19 63.929h-4.544c0.053 1.099 0.345 1.967 0.875 2.604 0.409 0.491 0.898 0.734 1.472 0.734 0.355 0 0.676-0.099 0.965-0.296 0.29-0.198 0.601-0.556 0.93-1.067l0.303 0.194c-0.451 0.915-0.945 1.564-1.489 1.944-0.541 0.381-1.17 0.571-1.886 0.571-1.227 0-2.157-0.473-2.789-1.418-0.508-0.762-0.762-1.705-0.762-2.833 0-1.38 0.374-2.481 1.12-3.298 0.746-0.818 1.622-1.227 2.625-1.227 0.839 0 1.566 0.344 2.184 1.03 0.616 0.691 0.949 1.71 0.996 3.062zm-2.18-0.593c0-0.95-0.052-1.603-0.153-1.958-0.104-0.354-0.266-0.621-0.484-0.804-0.125-0.108-0.289-0.159-0.494-0.159-0.307 0-0.558 0.148-0.754 0.451-0.35 0.524-0.524 1.246-0.524 2.159v0.311h2.409z"/>
</svg>
